<?xml version="1.0" encoding="utf-8"?>
<!-- Generator: Adobe Illustrator 19.2.1, SVG Export Plug-In . SVG Version: 6.00 Build 0)  -->
<svg version="1.1" id="Layer_1" xmlns="http://www.w3.org/2000/svg" xmlns:xlink="http://www.w3.org/1999/xlink" x="0px" y="0px"
	 viewBox="0 0 264 264" style="enable-background:new 0 0 264 264;" xml:space="preserve">
<style type="text/css">
	.st0{clip-path:url(#SVGID_2_);}
</style>
<g>
	<g>
		<defs>
			<rect id="SVGID_1_" x="0" width="264" height="264"/>
		</defs>
		<clipPath id="SVGID_2_">
			<use xlink:href="#SVGID_1_"  style="overflow:visible;"/>
		</clipPath>
		<path class="st0" d="M264,11.8c0-0.2,0-0.4,0-0.6c0-0.2,0-0.4-0.1-0.6c0-0.2-0.1-0.4-0.1-0.6c0-0.2-0.1-0.4-0.1-0.6
			c0-0.2-0.1-0.3-0.1-0.5c-0.1-0.2-0.1-0.4-0.2-0.6c-0.1-0.2-0.1-0.3-0.2-0.5c-0.1-0.2-0.1-0.4-0.2-0.6c-0.1-0.2-0.2-0.4-0.3-0.5
			c-0.1-0.2-0.2-0.3-0.3-0.5c-0.1-0.2-0.2-0.3-0.3-0.5c-0.1-0.2-0.2-0.3-0.3-0.5c-0.1-0.2-0.2-0.3-0.4-0.5c-0.1-0.2-0.2-0.3-0.4-0.5
			c-0.1-0.1-0.3-0.3-0.4-0.4c-0.1-0.2-0.3-0.3-0.5-0.5c-0.1-0.1-0.1-0.1-0.1-0.2c-0.1-0.1-0.2-0.1-0.2-0.2c-0.2-0.1-0.3-0.3-0.5-0.4
			c-0.1-0.1-0.3-0.2-0.4-0.3c-0.2-0.1-0.3-0.2-0.5-0.3c-0.2-0.1-0.3-0.2-0.5-0.3c-0.2-0.1-0.3-0.2-0.5-0.3c-0.2-0.1-0.4-0.2-0.5-0.3
			c-0.2-0.1-0.4-0.2-0.5-0.2c-0.2-0.1-0.4-0.1-0.6-0.2c-0.2-0.1-0.4-0.1-0.6-0.2c-0.2-0.1-0.4-0.1-0.6-0.1c-0.2,0-0.4-0.1-0.6-0.1
			c-0.2,0-0.4-0.1-0.6-0.1c-0.2,0-0.4,0-0.5-0.1c-0.2,0-0.4,0-0.7,0c-0.1,0-0.2,0-0.3,0h-48c-6.6,0-12,5.4-12,12c0,6.6,5.4,12,12,12
			h20.5l-72.9,78.7l-31.2-31.2c-2.3-2.3-5.4-3.6-8.7-3.5c-3.3,0.1-6.4,1.4-8.6,3.8L3.2,179.7c-4.5,4.9-4.2,12.5,0.6,17
			c2.3,2.1,5.2,3.2,8.2,3.2c3.2,0,6.4-1.3,8.8-3.8l91.5-98.7l31.2,31.2c2.3,2.3,5.5,3.6,8.7,3.5c3.3-0.1,6.4-1.5,8.6-3.8L240,42.6
			V60c0,6.6,5.4,12,12,12c6.6,0,12-5.4,12-12V12C264,11.9,264,11.9,264,11.8L264,11.8z M264,11.8"/>
	</g>
	<path d="M252,240H12c-6.6,0-12,5.4-12,12c0,6.6,5.4,12,12,12h240c6.6,0,12-5.4,12-12C264,245.4,258.6,240,252,240L252,240z
		 M252,240"/>
</g>
</svg>
