<?xml version="1.0" encoding="utf-8"?>
<!-- Generator: Adobe Illustrator 19.2.1, SVG Export Plug-In . SVG Version: 6.00 Build 0)  -->
<svg version="1.1" id="Layer_1" xmlns="http://www.w3.org/2000/svg" xmlns:xlink="http://www.w3.org/1999/xlink" x="0px" y="0px"
	 viewBox="0 0 264 264" style="enable-background:new 0 0 264 264;" xml:space="preserve">
<g>
	<path d="M252,96h-18.2c-1.3-3.6-2.7-7.1-4.4-10.6l12.8-12.8c4.7-4.7,4.7-12.3,0-17l-33.9-33.9c-2.2-2.2-5.3-3.5-8.5-3.5
		c-3.2,0-6.2,1.3-8.5,3.5l-12.8,12.8c-3.4-1.6-7-3.1-10.6-4.4V12c0-6.6-5.4-12-12-12h-48c-6.6,0-12,5.4-12,12v18.2
		c-3.6,1.3-7.1,2.7-10.6,4.4L72.6,21.7c-4.7-4.7-12.3-4.7-17,0L21.7,55.6c-2.2,2.2-3.5,5.3-3.5,8.5c0,3.2,1.3,6.2,3.5,8.5l12.8,12.8
		c-1.6,3.4-3.1,7-4.4,10.6H12c-6.6,0-12,5.4-12,12v48c0,6.6,5.4,12,12,12h18.2c1.3,3.6,2.7,7.1,4.4,10.6l-12.8,12.8
		c-2.2,2.2-3.5,5.3-3.5,8.5c0,3.2,1.3,6.2,3.5,8.5l33.9,33.9c4.7,4.7,12.3,4.7,17,0l12.8-12.8c3.4,1.6,7,3.1,10.6,4.4V252
		c0,6.6,5.4,12,12,12h48c6.6,0,12-5.4,12-12v-18.2c3.6-1.3,7.1-2.7,10.6-4.4l12.8,12.8c4.7,4.7,12.3,4.7,17,0l33.9-33.9
		c4.7-4.7,4.7-12.3,0-17l-12.8-12.8c1.6-3.4,3.1-7,4.4-10.6H252c6.6,0,12-5.4,12-12v-48C264,101.4,258.6,96,252,96L252,96z M240,144
		h-15c-5.5,0-10.3,3.7-11.6,9c-1.9,7.6-5,14.9-9,21.6c-2.8,4.7-2,10.7,1.8,14.6l10.6,10.6l-17,17l-10.6-10.6
		c-3.9-3.9-9.9-4.6-14.6-1.8c-6.8,4-14.1,7-21.7,9c-5.3,1.4-9,6.1-9,11.6v15h-24v-15c0-5.5-3.7-10.3-9-11.6c-7.6-2-14.9-5-21.6-9
		c-4.7-2.8-10.7-2-14.6,1.8l-10.6,10.6l-17-17l10.6-10.6c3.9-3.9,4.6-9.9,1.8-14.6c-4-6.8-7-14.1-9-21.7c-1.4-5.3-6.1-9-11.6-9H24
		v-24h15c5.5,0,10.3-3.7,11.6-9c2-7.6,5-14.9,9-21.7c2.8-4.7,2-10.7-1.8-14.6L47.1,64.1l17-17l10.6,10.6c3.9,3.9,9.9,4.6,14.6,1.8
		c6.8-4,14.1-7,21.6-9c5.3-1.4,9-6.1,9-11.6V24h24v15c0,5.5,3.7,10.3,9,11.6c7.6,2,14.9,5,21.7,9c4.7,2.8,10.7,2,14.6-1.8l10.6-10.6
		l17,17l-10.6,10.6c-3.9,3.9-4.6,9.9-1.8,14.6c4,6.8,7,14.1,9,21.6c1.4,5.3,6.1,9,11.6,9h15V144z M240,144"/>
	<path d="M174,128h-38V90c0-6.6-5.4-12-12-12s-12,5.4-12,12v50c0,6.6,5.4,12,12,12h50c6.6,0,12-5.4,12-12
		C186,133.4,180.6,128,174,128L174,128z M174,128"/>
</g>
</svg>
