<?xml version="1.0" encoding="utf-8"?>
<!-- Generator: Adobe Illustrator 19.2.1, SVG Export Plug-In . SVG Version: 6.00 Build 0)  -->
<svg version="1.1" id="Layer_1" xmlns="http://www.w3.org/2000/svg" xmlns:xlink="http://www.w3.org/1999/xlink" x="0px" y="0px"
	 viewBox="0 0 380.9 292.8" style="enable-background:new 0 0 380.9 292.8;" xml:space="preserve">
<style type="text/css">
	.st0{clip-path:url(#SVGID_2_);}
</style>
<g>
	<g>
		<defs>
			<rect id="SVGID_1_" width="380.9" height="292.8"/>
		</defs>
		<clipPath id="SVGID_2_">
			<use xlink:href="#SVGID_1_"  style="overflow:visible;"/>
		</clipPath>
		<path class="st0" d="M376.9,117.3L263.7,4.1c-4.7-4.7-12.3-4.7-17,0l-33.9,33.9h0l-25.5,25.5l-25.5-25.5h0L128,4.1
			c-4.7-4.7-12.3-4.7-17,0L3.5,111.6c-2.2,2.2-3.5,5.3-3.5,8.5c0,3.2,1.3,6.2,3.5,8.5l33.9,33.9c2.3,2.3,5.4,3.5,8.5,3.5
			c1.8,0,3.5-0.4,5.2-1.2l116.5,116.5c0,0,0,0,0,0c7,7,16.2,10.5,25.5,10.5c9.2,0,18.4-3.5,25.5-10.5c6.3-6.3,10-14.6,10.5-23.5
			c8.5-0.5,16.9-4,23.5-10.5c6.5-6.5,10-14.9,10.5-23.5c8.5-0.5,17-4,23.5-10.5c0,0,0,0,0,0l42.9-42.9c1.6,0.8,3.4,1.2,5.2,1.2
			c3.2,0,6.2-1.3,8.5-3.5l33.9-33.9c2.2-2.2,3.5-5.3,3.5-8.5C380.4,122.6,379.1,119.5,376.9,117.3L376.9,117.3z M29,120.1l90.5-90.5
			l17,17l-90.5,90.5L29,120.1z M235.4,230.4c-4.7,4.7-12.3,4.7-17,0c0,0,0,0,0,0l-17-17c-4.7-4.7-12.3-4.7-17,0
			c-4.7,4.7-4.7,12.3,0,17l17,17c0,0,0,0,0,0l0,0c2.3,2.3,3.5,5.3,3.5,8.5c0,3.2-1.2,6.2-3.5,8.5c-4.7,4.7-12.3,4.7-17,0
			c0,0,0,0,0,0l-116-116l84.9-84.9l17,17l-25.5,25.5c0,0,0,0,0,0c-14,14-14,36.9,0,50.9c7,7,16.2,10.5,25.5,10.5
			c9.2,0,18.4-3.5,25.5-10.5l25.5-25.5l42.4,42.4c0,0,0,0,0,0l5.7,5.7c2.3,2.3,3.5,5.3,3.5,8.5c0,3.2-1.2,6.2-3.5,8.5l0,0
			c0,0,0,0,0,0c-4.7,4.7-12.3,4.7-17,0c0,0,0,0,0,0l-17-17c-4.7-4.7-12.3-4.7-17,0c-4.7,4.7-4.7,12.3,0,17l17,17c0,0,0,0,0,0
			C240.1,218.1,240.1,225.7,235.4,230.4L235.4,230.4z M294.8,171l-8.5-8.5c0,0,0,0,0,0c0,0,0,0,0,0l-5.7-5.7c0,0,0,0,0,0l-50.9-50.9
			c-2.2-2.2-5.3-3.5-8.5-3.5c-3.2,0-6.2,1.3-8.5,3.5l-33.9,33.9c-4.7,4.7-12.3,4.7-17,0c-4.7-4.7-4.7-12.3,0-17h0L195.8,89
			c0,0,0,0,0,0c0,0,0,0,0,0l25.4-25.4l90.5,90.5L294.8,171z M334.4,142.7l-96.2-96.2l17-17l96.2,96.2L334.4,142.7z M334.4,142.7"/>
	</g>
</g>
</svg>
