<?xml version="1.0" encoding="utf-8"?>
<!-- Generator: Adobe Illustrator 19.2.1, SVG Export Plug-In . SVG Version: 6.00 Build 0)  -->
<svg version="1.1" id="Layer_1" xmlns="http://www.w3.org/2000/svg" xmlns:xlink="http://www.w3.org/1999/xlink" x="0px" y="0px"
	 viewBox="0 0 264 264" style="enable-background:new 0 0 264 264;" xml:space="preserve">
<g>
	<path d="M180,72h72c6.6,0,12-5.4,12-12V12c0-6.6-5.4-12-12-12h-72c-6.6,0-12,5.4-12,12v12h-36c-6.6,0-12,5.4-12,12v84H96v-16
		c0-6.6-5.4-12-12-12H12c-6.6,0-12,5.4-12,12v56c0,6.6,5.4,12,12,12h72c6.6,0,12-5.4,12-12v-16h24v84c0,6.6,5.4,12,12,12h36v12
		c0,6.6,5.4,12,12,12h72c6.6,0,12-5.4,12-12v-48c0-6.6-5.4-12-12-12h-72c-6.6,0-12,5.4-12,12v12h-24v-72h24v12c0,6.6,5.4,12,12,12
		h72c6.6,0,12-5.4,12-12v-48c0-6.6-5.4-12-12-12h-72c-6.6,0-12,5.4-12,12v12h-24V48h24v12C168,66.6,173.4,72,180,72L180,72z M72,148
		H24v-32h48V148z M192,216h48v24h-48V216z M192,120h48v24h-48V120z M192,24h48v24h-48V24z M192,24"/>
</g>
</svg>
