<?xml version="1.0" encoding="utf-8"?>
<!-- Generator: Adobe Illustrator 19.2.1, SVG Export Plug-In . SVG Version: 6.00 Build 0)  -->
<svg version="1.1" id="Layer_1" xmlns="http://www.w3.org/2000/svg" xmlns:xlink="http://www.w3.org/1999/xlink" x="0px" y="0px"
	 viewBox="0 0 264 265" style="enable-background:new 0 0 264 265;" xml:space="preserve">
<style type="text/css">
	.st0{clip-path:url(#SVGID_2_);}
</style>
<g>
	<g>
		<defs>
			<rect id="SVGID_1_" x="0" width="264" height="265"/>
		</defs>
		<clipPath id="SVGID_2_">
			<use xlink:href="#SVGID_1_"  style="overflow:visible;"/>
		</clipPath>
		<path class="st0" d="M252,127.9c-6.6,0-12,5.4-12,12v17.4l-79.2-85.5c-2.2-2.4-5.3-3.8-8.6-3.8c-3.3-0.1-6.4,1.2-8.7,3.5
			l-31.2,31.2L20.8,3.8C16.3-1,8.7-1.3,3.8,3.2c-4.9,4.5-5.1,12.1-0.6,17l100,107.9c2.2,2.4,5.3,3.8,8.6,3.8
			c3.3,0.1,6.4-1.2,8.7-3.5l31.2-31.2l72.9,78.7H204c-6.6,0-12,5.4-12,12c0,6.6,5.4,12,12,12h48c0.4,0,0.8,0,1.2-0.1
			c0.1,0,0.3,0,0.4-0.1c0.2,0,0.5-0.1,0.7-0.1c0.2,0,0.3-0.1,0.5-0.1c0.2,0,0.4-0.1,0.6-0.2c0.2-0.1,0.3-0.1,0.5-0.2
			c0.2-0.1,0.4-0.1,0.6-0.2c0.2-0.1,0.3-0.1,0.5-0.2c0.2-0.1,0.4-0.2,0.6-0.3c0.2-0.1,0.3-0.2,0.5-0.3c0.2-0.1,0.3-0.2,0.5-0.3
			c0.2-0.1,0.3-0.2,0.5-0.3c0.2-0.1,0.3-0.2,0.5-0.4c0.2-0.1,0.3-0.2,0.5-0.4c0.1-0.1,0.2-0.1,0.3-0.2c0.1,0,0.1-0.1,0.2-0.2
			c0.2-0.1,0.3-0.3,0.5-0.5c0.1-0.1,0.3-0.3,0.4-0.4c0.1-0.2,0.3-0.3,0.4-0.5c0.1-0.2,0.2-0.3,0.4-0.5c0.1-0.2,0.2-0.3,0.3-0.5
			c0.1-0.2,0.2-0.3,0.3-0.5c0.1-0.2,0.2-0.3,0.3-0.5c0.1-0.2,0.2-0.4,0.3-0.5c0.1-0.2,0.2-0.4,0.2-0.6c0.1-0.2,0.1-0.3,0.2-0.5
			c0.1-0.2,0.1-0.4,0.2-0.6c0-0.2,0.1-0.3,0.1-0.5c0-0.2,0.1-0.4,0.1-0.6c0-0.2,0.1-0.4,0.1-0.6c0-0.2,0-0.4,0.1-0.6
			c0-0.2,0-0.4,0-0.6c0-0.1,0-0.1,0-0.2v-48C264,133.3,258.6,127.9,252,127.9L252,127.9z M252,127.9"/>
	</g>
	<path d="M252,240H12c-6.6,0-12,5.4-12,12c0,6.6,5.4,12,12,12h240c6.6,0,12-5.4,12-12C264,245.4,258.6,240,252,240L252,240z
		 M252,240"/>
</g>
</svg>
