<?xml version="1.0" encoding="utf-8"?>
<!-- Generator: Adobe Illustrator 19.2.1, SVG Export Plug-In . SVG Version: 6.00 Build 0)  -->
<svg version="1.1" id="Layer_1" xmlns="http://www.w3.org/2000/svg" xmlns:xlink="http://www.w3.org/1999/xlink" x="0px" y="0px"
	 viewBox="0 0 170.9 171" style="enable-background:new 0 0 170.9 171;" xml:space="preserve">
<style type="text/css">
	.st0{clip-path:url(#SVGID_2_);fill-rule:evenodd;clip-rule:evenodd;}
</style>
<g>
	<g>
		<defs>
			<rect id="SVGID_1_" width="170.9" height="171"/>
		</defs>
		<clipPath id="SVGID_2_">
			<use xlink:href="#SVGID_1_"  style="overflow:visible;"/>
		</clipPath>
		<path class="st0" d="M105.4,85.2l60.7-60.7c5.6-5.6,5.6-14.7,0-20.3c-5.6-5.6-14.7-5.6-20.2,0L85.2,64.9L24.4,4.2
			c-5.6-5.6-14.7-5.6-20.2,0c-5.6,5.6-5.6,14.7,0,20.3l60.7,60.7L4.2,145.9c-5.6,5.6-5.6,14.7,0,20.2c5.6,5.6,14.7,5.6,20.2,0
			l60.7-60.8l60.7,60.8c5.6,5.6,14.7,5.6,20.2,0c5.6-5.6,5.6-14.7,0-20.2L105.4,85.2z M105.4,85.2"/>
	</g>
</g>
</svg>
