<?xml version="1.0" encoding="utf-8"?>
<!-- Generator: Adobe Illustrator 19.2.1, SVG Export Plug-In . SVG Version: 6.00 Build 0)  -->
<svg version="1.1" id="Layer_1" xmlns="http://www.w3.org/2000/svg" xmlns:xlink="http://www.w3.org/1999/xlink" x="0px" y="0px"
	 viewBox="0 0 660.8 215.4" style="enable-background:new 0 0 660.8 215.4;" xml:space="preserve">
<style type="text/css">
	.st0{fill:#0E4B82;}
</style>
<g>
	<path class="st0" d="M69.7,107.7c0,21,17,38,38,38s38-17,38-38s-17-38-38-38S69.7,86.7,69.7,107.7 M107.7,85.5
		c12.2,0,22.2,9.9,22.2,22.2c0,12.2-9.9,22.2-22.2,22.2s-22.2-9.9-22.2-22.2C85.5,95.5,95.5,85.5,107.7,85.5"/>
	<path class="st0" d="M15.8,107.7c0-19.6,6.2-37.8,16.7-52.8L20.3,44.7C7.5,62.4,0,84.2,0,107.7c0,50.6,34.9,93,81.9,104.6l2.8-15.6
		C45.1,186.4,15.8,150.5,15.8,107.7"/>
	<path class="st0" d="M55.2,32.4l9.6,16.5c-18.1,13.2-29.9,34.6-29.9,58.8c0,8.3,1.4,16.3,4,23.8l14.4-6.7
		c-1.7-5.4-2.6-11.1-2.6-17.1c0-18.3,8.6-34.6,22-45c4.2-3.2,8.8-5.9,13.7-7.9c5.7-2.3,11.9-3.7,18.4-4l1.4-15.9
		C96.4,35.1,87,37.2,78.4,41l-9.6-16.5c11.8-5.5,24.9-8.6,38.8-8.6c22.6,0,43.3,8.2,59.3,21.7l11.2-11.2C159.3,9.9,134.7,0,107.7,0
		C90.9,0,75.1,3.8,60.9,10.7c-4.8,2.3-9.4,5-13.7,7.9c-6,4.1-11.6,8.8-16.7,14l12.2,10.2C46.5,39,50.7,35.5,55.2,32.4"/>
	<path class="st0" d="M208.6,69.9c-1.9-5-4.1-9.8-6.7-14.4c-3.6-6.4-7.7-12.4-12.5-18l-11.2,11.2c3.5,4.2,6.6,8.7,9.3,13.4
		l-17.3,8.1c-10.4-17.3-27.8-30-48.2-34l-1.4,15.9c14.7,3.4,27.2,12.5,35.2,24.9c2.8,4.4,5.1,9.3,6.6,14.4
		c1.5,5.2,2.4,10.6,2.4,16.3c0,4.2-0.5,8.4-1.4,12.3l15,5.5c1.4-5.7,2.2-11.7,2.2-17.8c0-8.1-1.3-15.8-3.7-23l17.3-8.1
		c3.5,9.7,5.4,20.2,5.4,31.1c0,28.3-12.8,53.6-32.9,70.5l9.1,13c24.2-19.8,39.7-49.8,39.7-83.5C215.4,94.4,213,81.6,208.6,69.9"/>
	<path class="st0" d="M131.4,196.5l-3.3-18.8c19.6-5.7,35.7-19.4,44.7-37.3l-15-5.5c-6.9,12.7-18.5,22.5-32.5,27.1
		c-4.9,1.6-10.2,2.6-15.6,2.7c-0.7,0-1.4,0-2,0c-19.9,0-37.4-10.2-47.6-25.7l-14.5,6.8c12.8,20.8,35.8,34.8,62.1,34.8
		c1.6,0,3.2-0.1,4.8-0.2l3.3,18.8c-2.7,0.2-5.4,0.4-8.1,0.4c-2.5,0-5-0.1-7.4-0.3L97.5,215c3.4,0.3,6.8,0.5,10.2,0.5
		c3.7,0,7.3-0.2,10.9-0.5c5.3-0.5,10.5-1.5,15.6-2.7c10.2-2.6,19.8-6.6,28.6-11.8l-9.1-13C146.8,191.2,139.3,194.4,131.4,196.5"/>
</g>
<g>
	<path class="st0" d="M260.1,107.7c0-5.8,0.9-11.2,2.8-16c1.8-4.9,4.4-9,7.7-12.5c3.3-3.5,7.3-6.2,11.9-8.1s9.8-2.9,15.4-2.9
		c5.5,0,10.4,0.9,14.6,2.7c4.2,1.8,7.9,4.2,11.1,7.2l-3.5,4.8c-0.2,0.4-0.5,0.6-0.8,0.9c-0.4,0.2-0.8,0.3-1.4,0.3s-1.4-0.4-2.4-1.1
		c-0.9-0.7-2.2-1.5-3.7-2.3c-1.5-0.9-3.4-1.6-5.7-2.3c-2.3-0.7-5-1.1-8.3-1.1c-4,0-7.7,0.7-11,2.1s-6.1,3.4-8.5,6s-4.2,5.8-5.6,9.6
		c-1.3,3.8-2,8-2,12.8s0.7,9.1,2.1,12.9s3.3,7,5.7,9.6c2.4,2.6,5.2,4.6,8.5,5.9c3.2,1.4,6.8,2,10.6,2c2.3,0,4.4-0.1,6.2-0.4
		c1.8-0.3,3.5-0.7,5.1-1.3s3-1.3,4.4-2.2s2.7-1.9,4-3.1c0.6-0.5,1.2-0.8,1.8-0.8c0.6,0,1.1,0.2,1.5,0.7l4.2,4.4
		c-3.2,3.7-7,6.5-11.5,8.6s-10,3.1-16.4,3.1c-5.5,0-10.6-1-15.1-2.9s-8.4-4.6-11.6-8.1s-5.7-7.6-7.5-12.5
		C261,118.9,260.1,113.6,260.1,107.7z"/>
	<path class="st0" d="M330.6,107.8c0-5.8,0.9-11.1,2.8-16c1.8-4.8,4.4-9,7.8-12.5c3.3-3.5,7.3-6.2,12-8.2c4.7-1.9,9.9-2.9,15.5-2.9
		c5.7,0,10.9,1,15.5,2.9c4.7,1.9,8.7,4.7,12,8.2s5.9,7.7,7.8,12.5c1.8,4.8,2.7,10.2,2.7,16s-0.9,11.1-2.7,15.9
		c-1.8,4.8-4.4,9-7.8,12.5c-3.3,3.5-7.4,6.2-12,8.1c-4.7,1.9-9.9,2.9-15.5,2.9c-5.7,0-10.9-1-15.5-2.9c-4.7-1.9-8.7-4.6-12-8.1
		s-5.9-7.7-7.8-12.5C331.5,118.9,330.6,113.6,330.6,107.8z M341.3,107.8c0,4.7,0.6,9,1.9,12.7c1.3,3.8,3.1,6.9,5.5,9.5
		c2.4,2.6,5.3,4.6,8.6,6c3.4,1.4,7.1,2.1,11.3,2.1c4.2,0,8-0.7,11.3-2.1c3.4-1.4,6.3-3.4,8.6-6c2.4-2.6,4.2-5.8,5.5-9.5
		c1.3-3.8,1.9-8,1.9-12.7s-0.6-9-1.9-12.8s-3.1-7-5.5-9.6s-5.3-4.6-8.6-6c-3.4-1.4-7.1-2.1-11.3-2.1c-4.1,0-7.9,0.7-11.3,2.1
		s-6.3,3.4-8.6,6c-2.4,2.6-4.2,5.8-5.5,9.6C342,98.8,341.3,103,341.3,107.8z"/>
	<path class="st0" d="M421.8,146.4V69.1h22c4.9,0,9.1,0.5,12.7,1.5s6.5,2.4,8.9,4.3c2.3,1.9,4.1,4.1,5.2,6.8
		c1.1,2.7,1.7,5.6,1.7,8.9c0,2.7-0.4,5.3-1.3,7.6c-0.9,2.4-2.1,4.5-3.8,6.4c-1.7,1.9-3.7,3.5-6.1,4.8s-5.1,2.3-8.1,3
		c1.4,0.9,2.5,2,3.5,3.3l22.6,30.8h-9.3c-1.9,0-3.3-0.7-4.2-2.2l-20.1-27.7c-0.6-0.9-1.2-1.5-1.9-1.9c-0.7-0.4-1.8-0.6-3.3-0.6h-8
		v32.3L421.8,146.4L421.8,146.4z M432.2,106.5h11c3,0,5.7-0.4,8-1.1s4.3-1.8,5.8-3.1c1.6-1.4,2.7-3,3.5-4.8c0.8-1.9,1.2-3.9,1.2-6.2
		c0-4.6-1.5-8.1-4.5-10.4s-7.6-3.5-13.6-3.5h-11.4V106.5z"/>
	<path class="st0" d="M489.3,146.4V69.1H537v8.5h-37.2v25.7h30.1v8.2h-30.1v26.4h37.3l-0.1,8.5H489.3z"/>
	<path class="st0" d="M550.6,88.7l23-19.8h7.8v69.9h15.2v7.5h-41.4v-7.5h16.5V86.3c0-1.5,0.1-3.1,0.2-4.8l-13.7,11.8
		c-0.5,0.4-0.9,0.6-1.4,0.7s-0.9,0.1-1.3,0.1c-0.4-0.1-0.8-0.2-1.1-0.4c-0.4-0.2-0.6-0.5-0.8-0.7L550.6,88.7z"/>
	<path class="st0" d="M609,146.4v-3.2c0-0.7,0.2-1.4,0.5-2.1c0.4-0.7,0.9-1.4,1.6-2l24.6-24.9c2-2.1,3.9-4.1,5.6-6
		c1.7-1.9,3.1-3.9,4.3-5.8c1.2-2,2.1-3.9,2.7-5.9c0.7-2,1-4.1,1-6.4s-0.4-4.3-1.1-6c-0.7-1.7-1.7-3.1-2.9-4.2s-2.7-1.9-4.4-2.5
		s-3.5-0.8-5.5-0.8s-3.8,0.3-5.5,0.9s-3.1,1.4-4.4,2.4c-1.3,1-2.3,2.2-3.2,3.6s-1.5,3-1.9,4.6c-0.4,1.3-1,2.1-1.7,2.5
		s-1.7,0.5-3.1,0.3l-4.9-0.8c0.5-3.5,1.5-6.6,2.9-9.3c1.5-2.7,3.3-5,5.5-6.8s4.7-3.2,7.5-4.2c2.8-0.9,5.9-1.4,9.2-1.4
		c3.2,0,6.3,0.5,9.1,1.5s5.3,2.4,7.3,4.2c2.1,1.8,3.7,4.1,4.9,6.8c1.2,2.7,1.8,5.7,1.8,9c0,2.9-0.4,5.6-1.3,8c-0.9,2.5-2,4.8-3.5,7
		s-3.2,4.4-5.1,6.5c-1.9,2.1-3.9,4.3-6.1,6.4l-20.3,20.9c1.4-0.4,2.9-0.7,4.4-0.9s2.9-0.4,4.3-0.4h25.9c1.1,0,1.9,0.3,2.5,0.9
		c0.6,0.6,0.9,1.4,0.9,2.3v5.8H609z"/>
</g>
</svg>
