<?xml version="1.0" encoding="utf-8"?>
<!-- Generator: Adobe Illustrator 19.2.1, SVG Export Plug-In . SVG Version: 6.00 Build 0)  -->
<svg version="1.1" id="Layer_1" xmlns="http://www.w3.org/2000/svg" xmlns:xlink="http://www.w3.org/1999/xlink" x="0px" y="0px"
	 viewBox="0 0 60 60" style="enable-background:new 0 0 60 60;" xml:space="preserve">
<style type="text/css">
	.st0{fill:#517FA6;}
</style>
<path class="st0" d="M39.3,22.6L39.3,22.6c0.5,0,1,0,1.5,0c0.6,0,1.2-0.6,1.2-1.2c0-1,0-1.9,0-2.9c0-0.7-0.5-1.2-1.2-1.2
	c-1,0-1.9,0-2.9,0c-0.7,0-1.2,0.6-1.2,1.2c0,1,0,1.9,0,2.9c0,0.1,0,0.3,0.1,0.4c0.2,0.5,0.6,0.8,1.2,0.8
	C38.3,22.6,38.8,22.6,39.3,22.6z M30,23.8c-3.4,0-6.1,2.7-6.2,6.1c0,3.5,2.7,6.2,6,6.3c3.5,0.1,6.2-2.7,6.3-6
	C36.3,26.7,33.5,23.8,30,23.8z M18,27.1L18,27.1c0,4.6,0,9.1,0,13.6c0,0.6,0.6,1.2,1.2,1.2c7.2,0,14.3,0,21.5,0
	c0.7,0,1.2-0.6,1.2-1.2c0-4.5,0-9,0-13.5v-0.1H39c0.4,1.3,0.5,2.7,0.4,4s-0.6,2.6-1.3,3.8s-1.6,2.1-2.8,2.9c-2.9,2-6.8,2.2-9.9,0.4
	c-1.6-0.9-2.8-2.1-3.7-3.7c-1.3-2.4-1.5-4.9-0.7-7.5C20,27.1,19,27.1,18,27.1z M42.2,45.3c0.2,0,0.3,0,0.5-0.1
	c1.2-0.3,2.3-1.3,2.5-2.6c0-0.1,0-0.3,0.1-0.4V17.8c0-0.1,0-0.3-0.1-0.4c-0.3-1.4-1.4-2.4-2.8-2.6c-0.1,0-0.1,0-0.2,0H17.8
	c-0.1,0-0.3,0-0.4,0.1c-1.4,0.3-2.4,1.4-2.5,2.8c0,0.1,0,0.1,0,0.2v24.5c0,0.2,0,0.3,0.1,0.5c0.3,1.3,1.4,2.3,2.8,2.5
	c0.1,0,0.1,0,0.2,0H42.2z M30,60C13.4,60,0,46.6,0,30C0,13.4,13.4,0,30,0s30,13.4,30,30C60,46.6,46.6,60,30,60z"/>
</svg>
