<?xml version="1.0" encoding="utf-8"?>
<!-- Generator: Adobe Illustrator 19.2.1, SVG Export Plug-In . SVG Version: 6.00 Build 0)  -->
<svg version="1.1" id="Layer_1" xmlns="http://www.w3.org/2000/svg" xmlns:xlink="http://www.w3.org/1999/xlink" x="0px" y="0px"
	 viewBox="0 0 215.5 215.5" style="enable-background:new 0 0 215.5 215.5;" xml:space="preserve">
<style type="text/css">
	.st0{fill:#0E4B82;}
</style>
<g>
	<path class="st0" d="M69.7,107.7c0,21,17,38,38,38s38-17,38-38s-17-38-38-38S69.7,86.7,69.7,107.7 M107.7,85.5
		c12.2,0,22.2,9.9,22.2,22.2c0,12.2-9.9,22.2-22.2,22.2s-22.2-9.9-22.2-22.2C85.5,95.5,95.5,85.5,107.7,85.5"/>
	<path class="st0" d="M15.8,107.7c0-19.6,6.2-37.8,16.7-52.8L20.3,44.7C7.5,62.4,0,84.2,0,107.7c0,50.6,34.9,93,81.9,104.6l2.8-15.6
		C45.1,186.4,15.8,150.5,15.8,107.7"/>
	<path class="st0" d="M55.2,32.4l9.6,16.5c-18.1,13.2-29.9,34.6-29.9,58.8c0,8.3,1.4,16.3,4,23.8l14.4-6.7
		c-1.7-5.4-2.6-11.1-2.6-17.1c0-18.3,8.6-34.6,22-45c4.2-3.2,8.8-5.9,13.7-7.9c5.7-2.3,11.9-3.7,18.4-4l1.4-15.9
		C96.4,35.1,87,37.2,78.4,41l-9.6-16.5c11.8-5.5,24.9-8.6,38.8-8.6c22.6,0,43.3,8.2,59.3,21.7l11.2-11.2C159.3,9.9,134.7,0,107.7,0
		C90.9,0,75.1,3.8,60.9,10.7c-4.8,2.3-9.4,5-13.7,7.9c-6,4.1-11.6,8.8-16.7,14l12.2,10.2C46.5,39,50.7,35.5,55.2,32.4"/>
	<path class="st0" d="M208.6,69.9c-1.9-5-4.1-9.8-6.7-14.4c-3.6-6.4-7.7-12.4-12.5-18l-11.2,11.2c3.5,4.2,6.6,8.7,9.3,13.4
		l-17.3,8.1c-10.4-17.3-27.8-30-48.2-34l-1.4,15.9c14.7,3.4,27.2,12.5,35.2,24.9c2.8,4.4,5.1,9.3,6.6,14.4
		c1.5,5.2,2.4,10.6,2.4,16.3c0,4.2-0.5,8.4-1.4,12.3l15,5.5c1.4-5.7,2.2-11.7,2.2-17.8c0-8.1-1.3-15.8-3.7-23l17.3-8.1
		c3.5,9.7,5.4,20.2,5.4,31.1c0,28.3-12.8,53.6-32.9,70.5l9.1,13c24.2-19.8,39.7-49.8,39.7-83.5C215.4,94.4,213,81.6,208.6,69.9"/>
	<path class="st0" d="M131.4,196.5l-3.3-18.8c19.6-5.7,35.7-19.4,44.7-37.3l-15-5.5c-6.9,12.7-18.5,22.5-32.5,27.1
		c-4.9,1.6-10.2,2.6-15.6,2.7c-0.7,0-1.4,0-2,0c-19.9,0-37.4-10.2-47.6-25.7l-14.5,6.8c12.8,20.8,35.8,34.8,62.1,34.8
		c1.6,0,3.2-0.1,4.8-0.2l3.3,18.8c-2.7,0.2-5.4,0.4-8.1,0.4c-2.5,0-5-0.1-7.4-0.3L97.5,215c3.4,0.3,6.8,0.5,10.2,0.5
		c3.7,0,7.3-0.2,10.9-0.5c5.3-0.5,10.5-1.5,15.6-2.7c10.2-2.6,19.8-6.6,28.6-11.8l-9.1-13C146.8,191.2,139.3,194.4,131.4,196.5"/>
</g>
</svg>
