<?xml version="1.0" encoding="utf-8"?>
<!-- Generator: Adobe Illustrator 19.2.1, SVG Export Plug-In . SVG Version: 6.00 Build 0)  -->
<svg version="1.1" id="Layer_1" xmlns="http://www.w3.org/2000/svg" xmlns:xlink="http://www.w3.org/1999/xlink" x="0px" y="0px"
	 viewBox="0 0 52.9 54.7" style="enable-background:new 0 0 52.9 54.7;" xml:space="preserve">
<style type="text/css">
	.st0{clip-path:url(#SVGID_2_);}
</style>
<g>
	<g>
		<defs>
			<rect id="SVGID_1_" x="0" width="52.8" height="54.7"/>
		</defs>
		<clipPath id="SVGID_2_">
			<use xlink:href="#SVGID_1_"  style="overflow:visible;"/>
		</clipPath>
		<path class="st0" d="M51.6,40.2c-1.3-1.5-7.1-7.3-7.7-7.9c-0.4-0.5-2-2-4.2-2c-1,0-2.1,0.4-3,1c-1.1,0.8-2.8,2.3-4,3.4
			c-1.5-0.9-4-2.4-5.6-3.7c-2.8-2.3-5.4-5.4-7.8-9.3L19,21.2c1.2-1.3,2.7-3,3.5-4.1c2.1-2.8,0.6-5.8-1-7.2c-0.7-0.7-6.5-6.5-7.9-7.7
			c-1-0.9-2.3-1.4-3.6-1.4C8.9,0.7,8.1,1,7.9,1.1L7.2,1.5C4.1,3.5,0.2,6,0,15.3C0,24.5,7,33.2,12.9,39c6.2,6.7,15.5,14.8,25.4,14.8
			h0.1c9.3-0.2,11.8-4.1,13.8-7.2l0.2-0.3l0.2-0.4C53,44.7,53.3,42.2,51.6,40.2L51.6,40.2z M48.1,43.9L48.1,43.9
			c-1.8,2.8-3.2,4.9-9.8,5.1l0,2.4V49c-8.5,0-17.3-8.3-21.9-13.2l-0.1-0.1C8.9,28.4,4.8,21.2,4.8,15.4c0.2-6.7,2.3-8.1,5-9.8l0,0
			c0.2,0,0.4,0,0.6,0.2c1.1,1,6,5.8,7.8,7.6l0.1,0.1c0.2,0.2,0.4,0.5,0.4,0.6c0,0,0,0-0.1,0.1c-0.7,1-2.3,2.8-4.3,5l-1.2,1.2
			l1.9,3.5l0.1,0.1c2.7,4.4,5.6,7.9,8.9,10.6c2.9,2.4,7.7,5,7.9,5.1l1.5,0.8l1.3-1.2c1.5-1.4,3.7-3.4,4.9-4.2
			c0.1-0.1,0.1-0.1,0.1-0.1c0.1,0,0.5,0.2,0.6,0.4l0.1,0.2c1.8,1.8,6.6,6.6,7.6,7.8C48.1,43.5,48.1,43.8,48.1,43.9L48.1,43.9z
			 M48.1,43.9"/>
	</g>
</g>
</svg>
