<?xml version="1.0" encoding="utf-8"?>
<!-- Generator: Adobe Illustrator 19.2.1, SVG Export Plug-In . SVG Version: 6.00 Build 0)  -->
<svg version="1.1" id="Layer_1" xmlns="http://www.w3.org/2000/svg" xmlns:xlink="http://www.w3.org/1999/xlink" x="0px" y="0px"
	 viewBox="0 0 391.8 391.8" style="enable-background:new 0 0 391.8 391.8;" xml:space="preserve">
<g>
	<path d="M195.9,0C87.8,0,0,87.8,0,195.9C0,304,87.9,391.8,195.9,391.8c108.1,0,195.9-87.9,195.9-195.9C391.8,87.8,304,0,195.9,0
		L195.9,0z M195.9,364.4c-92.9,0-168.5-75.6-168.5-168.5C27.4,103,103,27.4,195.9,27.4c92.9,0,168.5,75.6,168.5,168.5
		C364.4,288.8,288.8,364.4,195.9,364.4L195.9,364.4z M195.9,364.4"/>
	<path d="M300.7,184.4L160.1,94.2c-4.2-2.7-9.6-2.9-14-0.5c-4.4,2.4-7.1,7-7.1,12v180.4c0,5,2.7,9.6,7.1,12c2.1,1.1,4.3,1.7,6.6,1.7
		c2.6,0,5.1-0.7,7.4-2.2l140.6-90.2c3.9-2.6,6.3-6.9,6.3-11.5C307,191.3,304.6,186.9,300.7,184.4L300.7,184.4z M166.3,261V130.8
		l101.5,65.1L166.3,261z M166.3,261"/>
</g>
</svg>
