<?xml version="1.0" encoding="utf-8"?>
<!-- Generator: Adobe Illustrator 19.2.1, SVG Export Plug-In . SVG Version: 6.00 Build 0)  -->
<svg version="1.1" id="Layer_1" xmlns="http://www.w3.org/2000/svg" xmlns:xlink="http://www.w3.org/1999/xlink" x="0px" y="0px"
	 viewBox="0 0 32.6 25" style="enable-background:new 0 0 32.6 25;" xml:space="preserve">
<style type="text/css">
	.st0{fill:#231F20;}
</style>
<g>
	<path class="st0" d="M15,18.5c0,2-0.7,3.6-2,4.7c-1.3,1.2-3,1.8-4.9,1.8c-2.5,0-4.5-0.8-5.9-2.4C0.7,21,0,18.9,0,16.2
		c0-2.7,0.4-5,1.3-6.9c0.9-1.9,1.9-3.5,3.1-4.7c1.2-1.3,2.4-2.2,3.7-3c1.3-0.7,2.4-1.2,3.4-1.6l3.3,5.5c-1.4,0.5-2.5,1.4-3.5,2.6
		c-1,1.2-1.5,2.5-1.6,3.8c1.4,0,2.6,0.6,3.7,1.8C14.4,14.9,15,16.5,15,18.5z M32.6,18.5c0,2-0.7,3.6-2,4.7c-1.3,1.2-3,1.8-4.9,1.8
		c-2.5,0-4.5-0.8-5.9-2.4c-1.4-1.6-2.1-3.7-2.1-6.4c0-2.7,0.4-5,1.3-6.9c0.9-1.9,1.9-3.5,3.1-4.7c1.2-1.3,2.4-2.2,3.7-3
		C27,0.9,28.1,0.3,29.1,0l3.3,5.5c-1.4,0.5-2.5,1.4-3.5,2.6c-1,1.2-1.5,2.5-1.6,3.8c1.4,0,2.6,0.6,3.7,1.8
		C32.1,14.9,32.6,16.5,32.6,18.5z"/>
</g>
</svg>
