<?xml version="1.0" encoding="utf-8"?>
<!-- Generator: Adobe Illustrator 19.2.1, SVG Export Plug-In . SVG Version: 6.00 Build 0)  -->
<svg version="1.1" id="Layer_1" xmlns="http://www.w3.org/2000/svg" xmlns:xlink="http://www.w3.org/1999/xlink" x="0px" y="0px"
	 viewBox="0 0 32.6 25" style="enable-background:new 0 0 32.6 25;" xml:space="preserve">
<style type="text/css">
	.st0{fill:#231F20;}
</style>
<g>
	<path class="st0" d="M17.6,6.5c0-2,0.7-3.6,2-4.7C21,0.6,22.6,0,24.6,0c2.5,0,4.5,0.8,5.9,2.4c1.4,1.6,2.1,3.7,2.1,6.4
		c0,2.7-0.4,5-1.3,6.9c-0.9,1.9-1.9,3.5-3.1,4.7c-1.2,1.3-2.4,2.2-3.7,3c-1.3,0.7-2.4,1.2-3.4,1.6L18,19.5c1.4-0.5,2.5-1.4,3.5-2.6
		c1-1.2,1.5-2.5,1.6-3.8c-1.4,0-2.6-0.6-3.7-1.8C18.2,10.1,17.6,8.5,17.6,6.5z M0,6.5c0-2,0.7-3.6,2-4.7C3.3,0.6,5,0,6.9,0
		c2.5,0,4.5,0.8,5.9,2.4C14.3,4,15,6.1,15,8.8c0,2.7-0.4,5-1.3,6.9c-0.9,1.9-1.9,3.5-3.1,4.7c-1.2,1.3-2.4,2.2-3.7,3
		c-1.3,0.7-2.4,1.2-3.4,1.6l-3.3-5.5c1.4-0.5,2.5-1.4,3.5-2.6c1-1.2,1.5-2.5,1.6-3.8c-1.4,0-2.6-0.6-3.7-1.8C0.6,10.1,0,8.5,0,6.5z"
		/>
</g>
</svg>
