<?xml version="1.0" encoding="utf-8"?>
<!-- Generator: Adobe Illustrator 19.2.1, SVG Export Plug-In . SVG Version: 6.00 Build 0)  -->
<svg version="1.1" id="Layer_1" xmlns="http://www.w3.org/2000/svg" xmlns:xlink="http://www.w3.org/1999/xlink" x="0px" y="0px"
	 viewBox="0 0 392 392.9" style="enable-background:new 0 0 392 392.9;" xml:space="preserve">
<style type="text/css">
	.st0{clip-path:url(#SVGID_2_);}
</style>
<g>
	<g>
		<defs>
			<rect id="SVGID_1_" y="0" width="391.9" height="392.9"/>
		</defs>
		<clipPath id="SVGID_2_">
			<use xlink:href="#SVGID_1_"  style="overflow:visible;"/>
		</clipPath>
		<path class="st0" d="M375.2,208.3c-3-34.4-31-62.5-65.5-61.4V83.5c0-7.5-5.2-14.1-12.6-15.8c-35.8-8.6-91.8-30.5-131.8-63.8
			c-5.2-4.3-12.6-5-18.5-1.7C118.4,18.2,38.9,61.2,12.6,67.6C5.2,69.4,0,75.9,0,83.5v137c0,94.6,69.4,171.4,154.9,171.4
			c38.9,0,76-16,104.6-45c1.4-1.4,2.4-3,3.2-4.6h113c9,0,16.3-7.3,16.3-16.3V224.6C391,208.2,375.2,208.3,375.2,208.3L375.2,208.3z
			 M342.3,208.3h-61.1c2.6-16.3,15.3-28.7,30.6-28.7C327,179.6,339.8,191.9,342.3,208.3L342.3,208.3z M32.6,220.5v-125
			c35-12.7,96.1-45.9,120.6-59.6C192,65.4,239.9,85.6,277,96v61.8c-27.4,19.4-29.2,50.5-29.2,50.5c-9,0-16.3,7.3-16.3,16.3
			c0,0,0.1,103,0.2,103.8c-21.7,20-48.8,31-76.9,31C87.5,359.3,32.6,297.1,32.6,220.5L32.6,220.5z M359.4,309.6h-95.2V241h95.1
			L359.4,309.6L359.4,309.6z M359.4,309.6"/>
	</g>
</g>
</svg>
