<?xml version="1.0" encoding="utf-8"?>
<!-- Generator: Adobe Illustrator 19.2.1, SVG Export Plug-In . SVG Version: 6.00 Build 0)  -->
<svg version="1.1" id="Layer_1" xmlns="http://www.w3.org/2000/svg" xmlns:xlink="http://www.w3.org/1999/xlink" x="0px" y="0px"
	 viewBox="0 0 152.9 194" style="enable-background:new 0 0 152.9 194;" xml:space="preserve">
<style type="text/css">
	.st0{clip-path:url(#SVGID_2_);}
</style>
<g>
	<g>
		<defs>
			<rect id="SVGID_1_" y="0" width="152.9" height="194"/>
		</defs>
		<clipPath id="SVGID_2_">
			<use xlink:href="#SVGID_1_"  style="overflow:visible;"/>
		</clipPath>
		<path class="st0" d="M150.4,68.5l-14.7-15.2l3-21c0.5-3.2-1.7-6.2-4.9-6.8l-20.8-3.7L103,3.2c-1.5-2.9-5-4-7.9-2.6l-19,9.3
			l-19-9.3c-2.9-1.4-6.4-0.3-7.9,2.6l-9.9,18.7l-20.8,3.7c-3.2,0.6-5.4,3.5-4.9,6.8l3,21L1.7,68.5c-2.2,2.3-2.2,6,0,8.3L16.4,92
			l-3,21c-0.5,3.2,1.7,6.2,4.9,6.8l16.7,2.9v64.9c0,2.1,1.1,4,2.8,5.1c1,0.6,2.1,0.9,3.2,0.9c0.9,0,1.8-0.2,2.7-0.6l32.4-16.2
			l32.3,16.2c1.9,0.9,4.1,0.8,5.8-0.3c1.8-1.1,2.8-3,2.8-5.1v-64.9l16.7-2.9c3.2-0.6,5.4-3.5,4.9-6.8l-3-21l14.7-15.2
			C152.7,74.5,152.7,70.8,150.4,68.5L150.4,68.5z M78.7,164.7c-1.7-0.8-3.7-0.8-5.4,0L47,177.8v-39.7l2.1,3.9c1.5,2.9,5,4,7.9,2.6
			l19-9.3l19,9.3c0.8,0.4,1.7,0.6,2.6,0.6c2.1,0,4.2-1.2,5.3-3.2l2.1-3.9v39.7L78.7,164.7z M125.1,85.8c-1.3,1.3-1.9,3.2-1.6,5
			l2.6,18.1l-18,3.2c-1.8,0.3-3.4,1.5-4.3,3.1l-8.6,16.2l-16.4-8c-0.8-0.4-1.7-0.6-2.6-0.6c-0.9,0-1.8,0.2-2.6,0.6l-16.4,8
			l-8.6-16.2c-0.9-1.6-2.4-2.8-4.3-3.1l-18-3.2l2.6-18.1c0.3-1.8-0.3-3.7-1.6-5L14.3,72.6l12.7-13.1c1.3-1.3,1.9-3.2,1.6-5
			l-2.6-18.1l18-3.2c1.8-0.3,3.4-1.5,4.3-3.1L57,13.9l16.4,8c1.7,0.8,3.6,0.8,5.3,0l16.4-8l8.6,16.2c0.9,1.6,2.4,2.8,4.3,3.1l18,3.2
			l-2.6,18.1c-0.3,1.8,0.3,3.7,1.6,5l12.7,13.1L125.1,85.8z M125.1,85.8"/>
	</g>
	<path d="M76.1,31.6c-22.6,0-41,18.4-41,41c0,22.6,18.4,41,41,41c22.6,0,41-18.4,41-41C117.1,50,98.7,31.6,76.1,31.6L76.1,31.6z
		 M76.1,101.7c-16,0-29-13-29-29c0-16,13-29,29-29c16,0,29,13,29,29C105.1,88.6,92.1,101.7,76.1,101.7L76.1,101.7z M76.1,101.7"/>
	<path d="M88.3,57.4L70.6,75.1l-6.7-6.7c-2.3-2.3-6.1-2.3-8.5,0c-2.3,2.3-2.3,6.1,0,8.5l11,11c1.2,1.2,2.7,1.8,4.2,1.8
		s3.1-0.6,4.2-1.8l22-22c2.3-2.3,2.3-6.1,0-8.5C94.4,55.1,90.6,55.1,88.3,57.4L88.3,57.4z M88.3,57.4"/>
</g>
</svg>
