<?xml version="1.0" encoding="utf-8"?>
<!-- Generator: Adobe Illustrator 19.2.1, SVG Export Plug-In . SVG Version: 6.00 Build 0)  -->
<svg version="1.1" id="Layer_1" xmlns="http://www.w3.org/2000/svg" xmlns:xlink="http://www.w3.org/1999/xlink" x="0px" y="0px"
	 viewBox="0 0 331.5 345.2" style="enable-background:new 0 0 331.5 345.2;" xml:space="preserve">
<g>
	<path d="M331.5,177.9C331.5,79.7,257.1,0,166,0C75.8,0,2.3,77.9,0.7,174.4c-0.5,2.8-0.7,5.8-0.7,8.9v62.9c0,27,21.9,49,49,49
		c27,0,49-21.9,49-49v-62.9c0-27-22.1-49-49.2-49c-5.1,0-10.3,0.9-14.9,2.3C50.4,74.1,103.3,28.2,166,28.2
		c62.9,0,116.1,46.4,132.4,109.3c-5.4-1.9-10.7-3-16.8-3c-27,0-48.7,21.9-48.7,49v62.9c0,20.5,12.4,38.2,30.3,45.5
		c-6.1,11-19.8,25.4-47.3,25.4h-69.2c-7.7,0-14,6.3-14,14c0,7.7,6.3,14,14,14h69.2c45.9,0,69-30.1,76.9-51.3
		c21.7-5.1,38-24.5,38-47.8v-60.6l0.7-5.1C331.5,179.5,331.5,178.6,331.5,177.9L331.5,177.9z M48.5,162c11.7,0,21.2,9.6,21.2,21
		v62.9c0,11.7-9.6,21.9-21.2,21.9c-11.7,0-21-10.5-21-21.9v-63.9c0.5-1.4,0.7-2.8,0.7-4.4v-0.2C30.8,168.5,38.9,162,48.5,162
		L48.5,162z M281.8,267.1c-11.7,0-21-9.6-21-21v-62.9c0-11.7,9.3-21,21-21c11.7,0,21,9.6,21,21v62.9
		C302.8,257.6,293.5,267.1,281.8,267.1L281.8,267.1z M281.8,267.1"/>
</g>
</svg>
