<?xml version="1.0" encoding="utf-8"?>
<!-- Generator: Adobe Illustrator 19.2.1, SVG Export Plug-In . SVG Version: 6.00 Build 0)  -->
<svg version="1.1" id="Layer_1" xmlns="http://www.w3.org/2000/svg" xmlns:xlink="http://www.w3.org/1999/xlink" x="0px" y="0px"
	 viewBox="0 0 25.6 36.8" style="enable-background:new 0 0 25.6 36.8;" xml:space="preserve">
<g>
	<path d="M22.4,14.4V9.6c0-5.3-4.3-9.6-9.6-9.6C7.5,0,3.2,4.3,3.2,9.6v4.8c-1.8,0-3.2,1.4-3.2,3.2v16c0,1.8,1.4,3.2,3.2,3.2h19.2
		c1.8,0,3.2-1.4,3.2-3.2v-16C25.6,15.8,24.2,14.4,22.4,14.4L22.4,14.4z M6.4,9.6c0-3.5,2.9-6.4,6.4-6.4c3.5,0,6.4,2.9,6.4,6.4v4.8
		H6.4V9.6z M22.4,33.6H3.2v-16h19.2V33.6z M11.2,26.8v2c0,0.9,0.7,1.6,1.6,1.6s1.6-0.7,1.6-1.6v-2c1-0.6,1.6-1.6,1.6-2.8
		c0-1.8-1.4-3.2-3.2-3.2c-1.8,0-3.2,1.4-3.2,3.2C9.6,25.2,10.2,26.2,11.2,26.8L11.2,26.8z M11.2,26.8"/>
</g>
</svg>
