<?xml version="1.0" encoding="utf-8"?>
<!-- Generator: Adobe Illustrator 19.2.1, SVG Export Plug-In . SVG Version: 6.00 Build 0)  -->
<svg version="1.1" id="Layer_1" xmlns="http://www.w3.org/2000/svg" xmlns:xlink="http://www.w3.org/1999/xlink" x="0px" y="0px"
	 viewBox="0 0 385 393.8" style="enable-background:new 0 0 385 393.8;" xml:space="preserve">
<style type="text/css">
	.st0{clip-path:url(#SVGID_2_);}
</style>
<g>
	<g>
		<defs>
			<rect id="SVGID_1_" x="0" width="385" height="393.8"/>
		</defs>
		<clipPath id="SVGID_2_">
			<use xlink:href="#SVGID_1_"  style="overflow:visible;"/>
		</clipPath>
		<path class="st0" d="M369.8,42.5c-8.8-0.8-16.6,5.8-17.4,14.6l-1.7,19.4C291-0.3,181.8-22.7,96.1,28.2
			C3,83.3-27.8,203.7,27.4,296.8c26.7,45,69.4,77,120.1,90c63.4,16.2,117.8-3.1,148.6-21.3c7.7-4.6,10.2-14.4,5.7-22.1
			c-4.6-7.7-14.4-10.2-22.1-5.6c-37.7,22.2-81.8,28.6-124.2,17.8C113,344.8,77.4,318.1,55,280.4C9,202.7,34.7,102,112.4,55.9
			c74.2-44,169.4-22.3,217.9,47.4l-29.9-2.6c-8.9-0.8-16.6,5.8-17.4,14.6c-0.8,8.9,5.8,16.6,14.6,17.4c0,0,64.7,5.7,65.2,5.7
			c3.8,0,7.4-1.3,10.3-3.8c3.3-2.7,5.3-6.6,5.7-11l5.6-63.8C385.2,51,378.6,43.3,369.8,42.5L369.8,42.5z M369.8,42.5"/>
	</g>
	<path d="M145.2,211.1c7.4-6.7,12.4-11.8,15.2-15.4c4.2-5.4,7.4-10.6,9.3-15.5c1.9-5,3-10.1,3-15.6c0-9.6-3.4-17.6-10.2-24
		c-6.8-6.5-16.2-9.7-28.2-9.7c-10.9,0-20,2.8-27.3,8.3c-7.3,5.6-11.6,14.7-13,27.5l23.1,2.3c0.4-6.8,2.1-11.6,5-14.6
		c2.9-2.9,6.7-4.4,11.6-4.4c4.9,0,8.7,1.4,11.5,4.2c2.8,2.8,4.2,6.8,4.2,11.9c0,4.7-1.6,9.4-4.8,14.2c-2.4,3.4-8.8,10.1-19.3,19.8
		c-13,12.1-21.7,21.8-26.1,29c-4.4,7.3-7,15-7.9,23.2h81.4v-21.5h-46.1c1.2-2.1,2.8-4.2,4.7-6.4
		C133.3,222.3,137.9,217.8,145.2,211.1L145.2,211.1z M145.2,211.1"/>
	<path d="M256.3,252.5v-24.4h15v-20.4h-15v-76.8h-19.5l-52.5,76.9v20.3h49.5v24.4H256.3z M206,207.7l27.8-41.4v41.4H206z M206,207.7
		"/>
</g>
</svg>
