<?xml version="1.0" encoding="UTF-8" standalone="no"?>
<svg width="512px" height="512px" viewBox="0 0 512 512" version="1.1" xmlns="http://www.w3.org/2000/svg" xmlns:xlink="http://www.w3.org/1999/xlink">
    <!-- Generator: Sketch 3.8.3 (29802) - http://www.bohemiancoding.com/sketch -->
    <title>social-vkontakte</title>
    <desc>Created with Sketch.</desc>
    <defs></defs>
    <g id="Page-1" stroke="none" stroke-width="1" fill="none" fill-rule="evenodd">
        <g id="social-vkontakte" fill="#000000">
            <g id="Page-1">
                <path d="M0,256 C0,114.615104 114.623849,0 256,0 C397.384896,0 512,114.623849 512,256 C512,397.384896 397.376151,512 256,512 C114.615104,512 0,397.376151 0,256 L0,256 Z M273.551843,357.146756 C273.551843,357.146756 280.011188,356.433715 283.313482,352.883431 C286.352947,349.620288 286.255743,343.495353 286.255743,343.495353 C286.255743,343.495353 285.833651,314.816608 299.158329,310.594907 C312.292741,306.434057 329.155698,338.310829 347.029396,350.567099 C360.54629,359.842029 370.8186,357.811764 370.8186,357.811764 L418.613767,357.146756 C418.613767,357.146756 443.610194,355.604316 431.757859,335.962475 C430.787777,334.359193 424.849803,321.435769 396.222043,294.885499 C366.245976,267.088458 370.26406,271.58769 406.366164,223.513685 C428.349727,194.236103 437.142322,176.367271 434.392394,168.709508 C431.774904,161.416801 415.605278,163.340309 415.605278,163.340309 L361.788757,163.676563 C361.788757,163.676563 357.801658,163.132159 354.841198,164.899832 C351.951324,166.63121 350.09454,170.66931 350.09454,170.66931 C350.09454,170.66931 341.570071,193.324523 330.214467,212.591695 C306.255379,253.243844 296.672249,255.395786 292.755638,252.865967 C283.64356,246.982277 285.922337,229.235122 285.922337,216.621258 C285.922337,177.222282 291.903035,160.793416 274.271891,156.542892 C268.421557,155.131758 264.113946,154.195611 249.152581,154.045104 C229.953152,153.849765 213.700145,154.105982 204.500526,158.607307 C198.378755,161.610003 193.653409,168.278261 196.534855,168.664675 C200.091344,169.138617 208.144654,170.832628 212.4138,176.640528 C217.92875,184.138193 217.735371,200.970549 217.735371,200.970549 C217.735371,200.970549 220.906255,247.34947 210.33589,253.107211 C203.080704,257.05992 193.130991,248.993321 171.764859,212.109217 C160.821684,193.218847 152.556805,172.330244 152.556805,172.330244 C152.556805,172.330244 150.9671,168.431977 148.122042,166.340879 C144.67337,163.80785 139.853003,163.007273 139.853003,163.007273 L88.714779,163.338181 C88.714779,163.338181 81.0376076,163.555933 78.2235266,166.891665 C75.7117772,169.860205 78.0226761,175.993677 78.0226761,175.993677 C78.0226761,175.993677 118.055214,269.578773 163.386768,316.737988 C204.96306,359.988263 252.161177,357.146756 252.161177,357.146756 L273.551843,357.146756 Z" id="social-vkontakte"></path>
            </g>
        </g>
    </g>
</svg>