<?xml version="1.0" encoding="utf-8"?>
<!-- Generator: Adobe Illustrator 19.2.1, SVG Export Plug-In . SVG Version: 6.00 Build 0)  -->
<svg version="1.1" id="Layer_1" xmlns="http://www.w3.org/2000/svg" xmlns:xlink="http://www.w3.org/1999/xlink" x="0px" y="0px"
	 viewBox="0 0 497.8 497.8" style="enable-background:new 0 0 497.8 497.8;" xml:space="preserve">
<style type="text/css">
	.st0{fill:url(#SVGID_1_);}
	.st1{fill:url(#SVGID_2_);}
</style>
<g>
	
		<linearGradient id="SVGID_1_" gradientUnits="userSpaceOnUse" x1="22.7523" y1="456.0498" x2="435.9877" y2="42.8143" gradientTransform="matrix(1 0 0 -1 0 497.804)">
		<stop  offset="0" style="stop-color:#DD272D"/>
		<stop  offset="0.5153" style="stop-color:#CA2429"/>
		<stop  offset="1" style="stop-color:#B22025"/>
	</linearGradient>
	<polygon class="st0" points="210.9,306.1 306.1,248.9 210.9,191.8 	"/>
	
		<linearGradient id="SVGID_2_" gradientUnits="userSpaceOnUse" x1="32.2533" y1="465.5507" x2="445.4888" y2="52.3153" gradientTransform="matrix(1 0 0 -1 0 497.804)">
		<stop  offset="0" style="stop-color:#DD272D"/>
		<stop  offset="0.5153" style="stop-color:#CA2429"/>
		<stop  offset="1" style="stop-color:#B22025"/>
	</linearGradient>
	<path class="st1" d="M248.9,0C111.4,0,0,111.4,0,248.9s111.4,248.9,248.9,248.9s248.9-111.4,248.9-248.9
		C497.8,111.4,386.4,0,248.9,0z M401.3,261.2c0,26.3-3,52.6-3,52.6s-3,22.4-12.1,32.3c-11.6,12.9-24.6,13-30.5,13.8
		c-42.6,3.3-106.7,3.4-106.7,3.4s-79.2-0.8-103.6-3.3c-6.8-1.4-22-1-33.6-13.9c-9.1-9.8-12.1-32.3-12.1-32.3s-3-26.3-3-52.6v-24.7
		c0-26.3,3-52.6,3-52.6s3-22.4,12.1-32.3c11.6-12.9,24.6-13,30.5-13.7c42.6-3.3,106.6-3.3,106.6-3.3h0.1c0,0,64,0,106.6,3.3
		c6,0.7,18.9,0.8,30.5,13.7c9.1,9.9,12.1,32.3,12.1,32.3s3,26.3,3,52.6L401.3,261.2L401.3,261.2z"/>
</g>
</svg>
