<?xml version="1.0" encoding="UTF-8"?><!DOCTYPE svg PUBLIC "-//W3C//DTD SVG 1.1//EN" "http://www.w3.org/Graphics/SVG/1.1/DTD/svg11.dtd"><svg xmlns="http://www.w3.org/2000/svg" xmlns:xlink="http://www.w3.org/1999/xlink"><defs>
        <path id="SVGID_1_" d="M0 0h382.8v201.8H0z"/>
    
        <path id="SVGID_1_" d="M0 0h201.8v382.8H0z"/>
    
        <path id="SVGID_1_" d="M0 0h201.8v382.8H0z"/>
    
        <path id="SVGID_1_" d="M0 0h382.8v201.8H0z"/>
    
        <path id="SVGID_1_" d="M0 0h264v264H0z"/>
    
        <path id="SVGID_1_" d="M0 0h264v265H0z"/>
    
        <path id="SVGID_1_" d="M0 0h380.9v292.8H0z"/>
    
        <path id="SVGID_1_" d="M0 0h170.9v171H0z"/>
    
        <path id="SVGID_1_" d="M0 0h52.8v54.7H0z"/>
    
        <path id="SVGID_1_" d="M0 0h152.9v194H0z"/>
    
        <path id="SVGID_1_" d="M0 0h391.9v392.9H0z"/>
    
        <path id="SVGID_1_" d="M0 0h385v393.8H0z"/>
    </defs><symbol id="icon-arrow-down" viewBox="0 0 382.8 201.8">
    <style>
        .st0{clip-path:url(#SVGID_2_)}
    </style>
    
    <clipPath id="SVGID_2_">
        <use xlink:href="#SVGID_1_" overflow="visible"/>
    </clipPath>
    <path class="st0" d="M199.4 198.5L379.5 18.4c4.2-4.2 4.2-11 0-15.3-4.2-4.2-11-4.2-15.3 0L191.8 175.5 19.4 3.1c-4.2-4.2-11-4.2-15.3 0C2 5.2.9 8 .9 10.7c0 2.7 1 5.5 3.2 7.6l180.1 180.1c4.2 4.3 11.1 4.3 15.2.1z"/>
</symbol><symbol id="icon-arrow-left" viewBox="0 0 201.8 382.8">
    <style>
        .st0{clip-path:url(#SVGID_2_)}
    </style>
    
    <clipPath id="SVGID_2_">
        <use xlink:href="#SVGID_1_" overflow="visible"/>
    </clipPath>
    <path class="st0" d="M3.3 199.4l180.1 180.1c4.2 4.2 11 4.2 15.3 0 4.2-4.2 4.2-11 0-15.3L26.3 191.8 198.7 19.4c4.2-4.2 4.2-11 0-15.3-2.1-2.1-4.9-3.2-7.6-3.2-2.7 0-5.5 1-7.6 3.2L3.4 184.2c-4.3 4.2-4.3 11.1-.1 15.2zm0 0"/>
</symbol><symbol id="icon-arrow-right" viewBox="0 0 201.8 382.8">
    <style>
        .st0{clip-path:url(#SVGID_2_)}
    </style>
    
    <clipPath id="SVGID_2_">
        <use xlink:href="#SVGID_1_" overflow="visible"/>
    </clipPath>
    <path class="st0" d="M198.5 183.4L18.5 3.3C14.2-1 7.4-1 3.2 3.3c-4.2 4.2-4.2 11 0 15.3L175.6 191 3.2 363.4c-4.2 4.2-4.2 11 0 15.3 2.1 2.1 4.9 3.2 7.6 3.2 2.7 0 5.5-1 7.6-3.2l180.1-180.1c4.2-4.2 4.2-11.1 0-15.2zm0 0"/>
</symbol><symbol id="icon-arrow-up" viewBox="0 0 382.8 201.8">
    <style>
        .st0{clip-path:url(#SVGID_2_)}
    </style>
    
    <clipPath id="SVGID_2_">
        <use xlink:href="#SVGID_1_" overflow="visible"/>
    </clipPath>
    <path class="st0" d="M183.4 3.3L3.3 183.4c-4.2 4.2-4.2 11 0 15.3 4.2 4.2 11 4.2 15.3 0L191 26.3l172.4 172.4c4.2 4.2 11 4.2 15.3 0 2.1-2.1 3.2-4.9 3.2-7.6 0-2.7-1-5.5-3.2-7.6L198.6 3.4c-4.2-4.3-11.1-4.3-15.2-.1zm0 0"/>
</symbol><symbol id="icon-benefits-1" viewBox="0 0 264 264">
    <style>
        .st0{clip-path:url(#SVGID_2_)}
    </style>
    
    <clipPath id="SVGID_2_">
        <use xlink:href="#SVGID_1_" overflow="visible"/>
    </clipPath>
    <path class="st0" d="M264 11.8v-.6c0-.2 0-.4-.1-.6 0-.2-.1-.4-.1-.6 0-.2-.1-.4-.1-.6 0-.2-.1-.3-.1-.5-.1-.2-.1-.4-.2-.6-.1-.2-.1-.3-.2-.5s-.1-.4-.2-.6c-.1-.2-.2-.4-.3-.5-.1-.2-.2-.3-.3-.5-.1-.2-.2-.3-.3-.5-.1-.2-.2-.3-.3-.5-.1-.2-.2-.3-.4-.5-.1-.2-.2-.3-.4-.5l-.4-.4c-.1-.2-.3-.3-.5-.5-.1-.1-.1-.1-.1-.2-.1-.1-.2-.1-.2-.2-.2-.1-.3-.3-.5-.4-.1-.1-.3-.2-.4-.3-.2-.1-.3-.2-.5-.3-.2-.1-.3-.2-.5-.3-.2-.1-.3-.2-.5-.3-.2-.1-.4-.2-.5-.3-.2-.1-.4-.2-.5-.2-.2-.1-.4-.1-.6-.2-.2-.1-.4-.1-.6-.2-.2-.1-.4-.1-.6-.1-.2 0-.4-.1-.6-.1-.2 0-.4-.1-.6-.1-.2 0-.4 0-.5-.1h-49c-6.6 0-12 5.4-12 12s5.4 12 12 12h20.5l-72.9 78.7-31.2-31.2c-2.3-2.3-5.4-3.6-8.7-3.5-3.3.1-6.4 1.4-8.6 3.8L3.2 179.7c-4.5 4.9-4.2 12.5.6 17 2.3 2.1 5.2 3.2 8.2 3.2 3.2 0 6.4-1.3 8.8-3.8l91.5-98.7 31.2 31.2c2.3 2.3 5.5 3.6 8.7 3.5 3.3-.1 6.4-1.5 8.6-3.8L240 42.6V60c0 6.6 5.4 12 12 12s12-5.4 12-12V12v-.2zm0 0"/>
    <path d="M252 240H12c-6.6 0-12 5.4-12 12s5.4 12 12 12h240c6.6 0 12-5.4 12-12s-5.4-12-12-12zm0 0"/>
</symbol><symbol id="icon-benefits-2" viewBox="0 0 264 265">
    <style>
        .st0{clip-path:url(#SVGID_2_)}
    </style>
    
    <clipPath id="SVGID_2_">
        <use xlink:href="#SVGID_1_" overflow="visible"/>
    </clipPath>
    <path class="st0" d="M252 127.9c-6.6 0-12 5.4-12 12v17.4l-79.2-85.5c-2.2-2.4-5.3-3.8-8.6-3.8-3.3-.1-6.4 1.2-8.7 3.5l-31.2 31.2L20.8 3.8C16.3-1 8.7-1.3 3.8 3.2s-5.1 12.1-.6 17l100 107.9c2.2 2.4 5.3 3.8 8.6 3.8 3.3.1 6.4-1.2 8.7-3.5l31.2-31.2 72.9 78.7H204c-6.6 0-12 5.4-12 12s5.4 12 12 12h48c.4 0 .8 0 1.2-.1.1 0 .3 0 .4-.1.2 0 .5-.1.7-.1.2 0 .3-.1.5-.1s.4-.1.6-.2c.2-.1.3-.1.5-.2s.4-.1.6-.2c.2-.1.3-.1.5-.2l.6-.3c.2-.1.3-.2.5-.3.2-.1.3-.2.5-.3.2-.1.3-.2.5-.3.2-.1.3-.2.5-.4.2-.1.3-.2.5-.4.1-.1.2-.1.3-.2.1 0 .1-.1.2-.2.2-.1.3-.3.5-.5l.4-.4c.1-.2.3-.3.4-.5.1-.2.2-.3.4-.5.1-.2.2-.3.3-.5.1-.2.2-.3.3-.5.1-.2.2-.3.3-.5.1-.2.2-.4.3-.5.1-.2.2-.4.2-.6.1-.2.1-.3.2-.5s.1-.4.2-.6c0-.2.1-.3.1-.5s.1-.4.1-.6c0-.2.1-.4.1-.6 0-.2 0-.4.1-.6v-.6-48.2c-.5-6.3-5.9-11.7-12.5-11.7zm0 0"/>
    <path d="M252 240H12c-6.6 0-12 5.4-12 12s5.4 12 12 12h240c6.6 0 12-5.4 12-12s-5.4-12-12-12zm0 0"/>
</symbol><symbol id="icon-benefits-3" viewBox="0 0 380.9 292.8">
    <style>
        .st0{clip-path:url(#SVGID_2_)}
    </style>
    
    <clipPath id="SVGID_2_">
        <use xlink:href="#SVGID_1_" overflow="visible"/>
    </clipPath>
    <path class="st0" d="M376.9 117.3L263.7 4.1c-4.7-4.7-12.3-4.7-17 0L212.8 38l-25.5 25.5L161.8 38 128 4.1c-4.7-4.7-12.3-4.7-17 0L3.5 111.6c-2.2 2.2-3.5 5.3-3.5 8.5s1.3 6.2 3.5 8.5l33.9 33.9c2.3 2.3 5.4 3.5 8.5 3.5 1.8 0 3.5-.4 5.2-1.2l116.5 116.5c7 7 16.2 10.5 25.5 10.5 9.2 0 18.4-3.5 25.5-10.5 6.3-6.3 10-14.6 10.5-23.5 8.5-.5 16.9-4 23.5-10.5 6.5-6.5 10-14.9 10.5-23.5 8.5-.5 17-4 23.5-10.5l42.9-42.9c1.6.8 3.4 1.2 5.2 1.2 3.2 0 6.2-1.3 8.5-3.5l33.9-33.9c2.2-2.2 3.5-5.3 3.5-8.5-.2-3.1-1.5-6.2-3.7-8.4zM29 120.1l90.5-90.5 17 17L46 137.1l-17-17zm206.4 110.3c-4.7 4.7-12.3 4.7-17 0l-17-17c-4.7-4.7-12.3-4.7-17 0-4.7 4.7-4.7 12.3 0 17l17 17c2.3 2.3 3.5 5.3 3.5 8.5s-1.2 6.2-3.5 8.5c-4.7 4.7-12.3 4.7-17 0l-116-116 84.9-84.9 17 17-25.5 25.5c-14 14-14 36.9 0 50.9 7 7 16.2 10.5 25.5 10.5 9.2 0 18.4-3.5 25.5-10.5l25.5-25.5 42.4 42.4 5.7 5.7c2.3 2.3 3.5 5.3 3.5 8.5s-1.2 6.2-3.5 8.5c-4.7 4.7-12.3 4.7-17 0l-17-17c-4.7-4.7-12.3-4.7-17 0-4.7 4.7-4.7 12.3 0 17l17 17c4.7 4.6 4.7 12.2 0 16.9zm59.4-59.4l-8.5-8.5-5.7-5.7-50.9-50.9c-2.2-2.2-5.3-3.5-8.5-3.5s-6.2 1.3-8.5 3.5l-33.9 33.9c-4.7 4.7-12.3 4.7-17 0-4.7-4.7-4.7-12.3 0-17l34-33.8 25.4-25.4 90.5 90.5-16.9 16.9zm39.6-28.3l-96.2-96.2 17-17 96.2 96.2-17 17zm0 0"/>
</symbol><symbol id="icon-benefits-4" viewBox="0 0 264 264">
    <path d="M252 96h-18.2c-1.3-3.6-2.7-7.1-4.4-10.6l12.8-12.8c4.7-4.7 4.7-12.3 0-17l-33.9-33.9c-2.2-2.2-5.3-3.5-8.5-3.5s-6.2 1.3-8.5 3.5l-12.8 12.8c-3.4-1.6-7-3.1-10.6-4.4V12c0-6.6-5.4-12-12-12h-48c-6.6 0-12 5.4-12 12v18.2c-3.6 1.3-7.1 2.7-10.6 4.4L72.6 21.7c-4.7-4.7-12.3-4.7-17 0L21.7 55.6c-2.2 2.2-3.5 5.3-3.5 8.5s1.3 6.2 3.5 8.5l12.8 12.8c-1.6 3.4-3.1 7-4.4 10.6H12c-6.6 0-12 5.4-12 12v48c0 6.6 5.4 12 12 12h18.2c1.3 3.6 2.7 7.1 4.4 10.6l-12.8 12.8c-2.2 2.2-3.5 5.3-3.5 8.5s1.3 6.2 3.5 8.5l33.9 33.9c4.7 4.7 12.3 4.7 17 0l12.8-12.8c3.4 1.6 7 3.1 10.6 4.4V252c0 6.6 5.4 12 12 12h48c6.6 0 12-5.4 12-12v-18.2c3.6-1.3 7.1-2.7 10.6-4.4l12.8 12.8c4.7 4.7 12.3 4.7 17 0l33.9-33.9c4.7-4.7 4.7-12.3 0-17l-12.8-12.8c1.6-3.4 3.1-7 4.4-10.6h18c6.6 0 12-5.4 12-12v-48c0-6.5-5.4-11.9-12-11.9zm-12 48h-15c-5.5 0-10.3 3.7-11.6 9-1.9 7.6-5 14.9-9 21.6-2.8 4.7-2 10.7 1.8 14.6l10.6 10.6-17 17-10.6-10.6c-3.9-3.9-9.9-4.6-14.6-1.8-6.8 4-14.1 7-21.7 9-5.3 1.4-9 6.1-9 11.6v15h-24v-15c0-5.5-3.7-10.3-9-11.6-7.6-2-14.9-5-21.6-9-4.7-2.8-10.7-2-14.6 1.8l-10.6 10.6-17-17 10.6-10.6c3.9-3.9 4.6-9.9 1.8-14.6-4-6.8-7-14.1-9-21.7-1.4-5.3-6.1-9-11.6-9H24v-24h15c5.5 0 10.3-3.7 11.6-9 2-7.6 5-14.9 9-21.7 2.8-4.7 2-10.7-1.8-14.6L47.1 64.1l17-17 10.6 10.6c3.9 3.9 9.9 4.6 14.6 1.8 6.8-4 14.1-7 21.6-9 5.3-1.4 9-6.1 9-11.6V24h24v15c0 5.5 3.7 10.3 9 11.6 7.6 2 14.9 5 21.7 9 4.7 2.8 10.7 2 14.6-1.8l10.6-10.6 17 17-10.6 10.6c-3.9 3.9-4.6 9.9-1.8 14.6 4 6.8 7 14.1 9 21.6 1.4 5.3 6.1 9 11.6 9h15v24zm0 0"/>
    <path d="M174 128h-38V90c0-6.6-5.4-12-12-12s-12 5.4-12 12v50c0 6.6 5.4 12 12 12h50c6.6 0 12-5.4 12-12s-5.4-12-12-12zm0 0"/>
</symbol><symbol id="icon-benefits-5" viewBox="0 0 264 264">
    <path d="M180 72h72c6.6 0 12-5.4 12-12V12c0-6.6-5.4-12-12-12h-72c-6.6 0-12 5.4-12 12v12h-36c-6.6 0-12 5.4-12 12v84H96v-16c0-6.6-5.4-12-12-12H12c-6.6 0-12 5.4-12 12v56c0 6.6 5.4 12 12 12h72c6.6 0 12-5.4 12-12v-16h24v84c0 6.6 5.4 12 12 12h36v12c0 6.6 5.4 12 12 12h72c6.6 0 12-5.4 12-12v-48c0-6.6-5.4-12-12-12h-72c-6.6 0-12 5.4-12 12v12h-24v-72h24v12c0 6.6 5.4 12 12 12h72c6.6 0 12-5.4 12-12v-48c0-6.6-5.4-12-12-12h-72c-6.6 0-12 5.4-12 12v12h-24V48h24v12c0 6.6 5.4 12 12 12zM72 148H24v-32h48v32zm120 68h48v24h-48v-24zm0-96h48v24h-48v-24zm0-96h48v24h-48V24zm0 0"/>
</symbol><symbol id="icon-benefits-6" viewBox="0 0 264 264">
    <path d="M256.4.8c-4.6-1.8-9.8-.6-13.2 3l-89.1 96.5-39.4-26-.1-.1c-.1-.1-.3-.2-.4-.3-.2-.1-.3-.2-.5-.3-.3-.2-.6-.3-1-.5-.1-.1-.3-.1-.4-.2-.2-.1-.4-.2-.6-.2-.1 0-.3-.1-.4-.1-.2-.1-.4-.1-.6-.2-.1 0-.3-.1-.4-.1-.2 0-.5-.1-.7-.1H106.9c-.3 0-.5.1-.8.1-.2 0-.3.1-.5.1-.3.1-.6.1-.9.2-.2 0-.3.1-.5.2s-.4.1-.6.2c-.2.1-.3.1-.5.2s-.4.2-.5.3c-.1.1-.3.2-.4.2-.2.1-.4.2-.5.3-.1.1-.3.2-.4.3-.2.1-.3.2-.5.4-.1.1-.3.2-.4.3-.2.1-.3.3-.5.4l-.4.4-.2.2-96 103.6C1.1 182 0 184.9 0 187.9V252c0 6.6 5.4 12 12 12h240c6.6 0 12-5.4 12-12V12c0-4.9-3-9.4-7.6-11.2zM96 240H72v-99.2l24-25.9V240zm24-133.4l24 15.8V240h-24V106.6zm48 14.1l24-26V240h-24V120.7zM24 192.6l24-25.9V240H24v-47.4zM240 240h-24V68.7l24-26V240zm0 0"/>
</symbol><symbol id="icon-close" viewBox="0 0 170.9 171">
    <style>
        .st0{clip-path:url(#SVGID_2_);fill-rule:evenodd;clip-rule:evenodd}
    </style>
    
    <clipPath id="SVGID_2_">
        <use xlink:href="#SVGID_1_" overflow="visible"/>
    </clipPath>
    <path class="st0" d="M105.4 85.2l60.7-60.7c5.6-5.6 5.6-14.7 0-20.3-5.6-5.6-14.7-5.6-20.2 0L85.2 64.9 24.4 4.2c-5.6-5.6-14.7-5.6-20.2 0-5.6 5.6-5.6 14.7 0 20.3l60.7 60.7-60.7 60.7c-5.6 5.6-5.6 14.7 0 20.2 5.6 5.6 14.7 5.6 20.2 0l60.7-60.8 60.7 60.8c5.6 5.6 14.7 5.6 20.2 0 5.6-5.6 5.6-14.7 0-20.2l-60.6-60.7zm0 0"/>
</symbol><symbol id="icon-core12" viewBox="0 0 660.8 215.4">
    <style>
        .st0{fill:#0e4b82}
    </style>
    <path class="st0" d="M69.7 107.7c0 21 17 38 38 38s38-17 38-38-17-38-38-38-38 17-38 38m38-22.2c12.2 0 22.2 9.9 22.2 22.2 0 12.2-9.9 22.2-22.2 22.2s-22.2-9.9-22.2-22.2c0-12.2 10-22.2 22.2-22.2"/>
    <path class="st0" d="M15.8 107.7c0-19.6 6.2-37.8 16.7-52.8L20.3 44.7C7.5 62.4 0 84.2 0 107.7c0 50.6 34.9 93 81.9 104.6l2.8-15.6c-39.6-10.3-68.9-46.2-68.9-89"/>
    <path class="st0" d="M55.2 32.4l9.6 16.5c-18.1 13.2-29.9 34.6-29.9 58.8 0 8.3 1.4 16.3 4 23.8l14.4-6.7c-1.7-5.4-2.6-11.1-2.6-17.1 0-18.3 8.6-34.6 22-45 4.2-3.2 8.8-5.9 13.7-7.9 5.7-2.3 11.9-3.7 18.4-4l1.4-15.9c-9.8.2-19.2 2.3-27.8 6.1l-9.6-16.5c11.8-5.5 24.9-8.6 38.8-8.6 22.6 0 43.3 8.2 59.3 21.7l11.2-11.2C159.3 9.9 134.7 0 107.7 0 90.9 0 75.1 3.8 60.9 10.7c-4.8 2.3-9.4 5-13.7 7.9-6 4.1-11.6 8.8-16.7 14l12.2 10.2c3.8-3.8 8-7.3 12.5-10.4"/>
    <path class="st0" d="M208.6 69.9c-1.9-5-4.1-9.8-6.7-14.4-3.6-6.4-7.7-12.4-12.5-18l-11.2 11.2c3.5 4.2 6.6 8.7 9.3 13.4l-17.3 8.1c-10.4-17.3-27.8-30-48.2-34l-1.4 15.9c14.7 3.4 27.2 12.5 35.2 24.9 2.8 4.4 5.1 9.3 6.6 14.4 1.5 5.2 2.4 10.6 2.4 16.3 0 4.2-.5 8.4-1.4 12.3l15 5.5c1.4-5.7 2.2-11.7 2.2-17.8 0-8.1-1.3-15.8-3.7-23l17.3-8.1c3.5 9.7 5.4 20.2 5.4 31.1 0 28.3-12.8 53.6-32.9 70.5l9.1 13c24.2-19.8 39.7-49.8 39.7-83.5-.1-13.3-2.5-26.1-6.9-37.8"/>
    <path class="st0" d="M131.4 196.5l-3.3-18.8c19.6-5.7 35.7-19.4 44.7-37.3l-15-5.5a57.45 57.45 0 0 1-32.5 27.1c-4.9 1.6-10.2 2.6-15.6 2.7h-2c-19.9 0-37.4-10.2-47.6-25.7l-14.5 6.8c12.8 20.8 35.8 34.8 62.1 34.8 1.6 0 3.2-.1 4.8-.2l3.3 18.8c-2.7.2-5.4.4-8.1.4-2.5 0-5-.1-7.4-.3L97.5 215c3.4.3 6.8.5 10.2.5 3.7 0 7.3-.2 10.9-.5 5.3-.5 10.5-1.5 15.6-2.7 10.2-2.6 19.8-6.6 28.6-11.8l-9.1-13c-6.9 3.7-14.4 6.9-22.3 9"/>
    <g>
        <path class="st0" d="M260.1 107.7c0-5.8.9-11.2 2.8-16 1.8-4.9 4.4-9 7.7-12.5s7.3-6.2 11.9-8.1 9.8-2.9 15.4-2.9c5.5 0 10.4.9 14.6 2.7 4.2 1.8 7.9 4.2 11.1 7.2l-3.5 4.8c-.2.4-.5.6-.8.9-.4.2-.8.3-1.4.3s-1.4-.4-2.4-1.1c-.9-.7-2.2-1.5-3.7-2.3-1.5-.9-3.4-1.6-5.7-2.3-2.3-.7-5-1.1-8.3-1.1-4 0-7.7.7-11 2.1s-6.1 3.4-8.5 6-4.2 5.8-5.6 9.6c-1.3 3.8-2 8-2 12.8s.7 9.1 2.1 12.9 3.3 7 5.7 9.6c2.4 2.6 5.2 4.6 8.5 5.9 3.2 1.4 6.8 2 10.6 2 2.3 0 4.4-.1 6.2-.4 1.8-.3 3.5-.7 5.1-1.3s3-1.3 4.4-2.2 2.7-1.9 4-3.1c.6-.5 1.2-.8 1.8-.8.6 0 1.1.2 1.5.7l4.2 4.4c-3.2 3.7-7 6.5-11.5 8.6s-10 3.1-16.4 3.1c-5.5 0-10.6-1-15.1-2.9s-8.4-4.6-11.6-8.1-5.7-7.6-7.5-12.5c-1.7-4.8-2.6-10.1-2.6-16z"/>
        <path class="st0" d="M330.6 107.8c0-5.8.9-11.1 2.8-16 1.8-4.8 4.4-9 7.8-12.5 3.3-3.5 7.3-6.2 12-8.2 4.7-1.9 9.9-2.9 15.5-2.9 5.7 0 10.9 1 15.5 2.9 4.7 1.9 8.7 4.7 12 8.2s5.9 7.7 7.8 12.5c1.8 4.8 2.7 10.2 2.7 16s-.9 11.1-2.7 15.9c-1.8 4.8-4.4 9-7.8 12.5-3.3 3.5-7.4 6.2-12 8.1-4.7 1.9-9.9 2.9-15.5 2.9-5.7 0-10.9-1-15.5-2.9-4.7-1.9-8.7-4.6-12-8.1s-5.9-7.7-7.8-12.5c-1.9-4.8-2.8-10.1-2.8-15.9zm10.7 0c0 4.7.6 9 1.9 12.7 1.3 3.8 3.1 6.9 5.5 9.5 2.4 2.6 5.3 4.6 8.6 6 3.4 1.4 7.1 2.1 11.3 2.1 4.2 0 8-.7 11.3-2.1 3.4-1.4 6.3-3.4 8.6-6 2.4-2.6 4.2-5.8 5.5-9.5 1.3-3.8 1.9-8 1.9-12.7s-.6-9-1.9-12.8-3.1-7-5.5-9.6-5.3-4.6-8.6-6c-3.4-1.4-7.1-2.1-11.3-2.1-4.1 0-7.9.7-11.3 2.1s-6.3 3.4-8.6 6c-2.4 2.6-4.2 5.8-5.5 9.6-1.2 3.8-1.9 8-1.9 12.8z"/>
        <path class="st0" d="M421.8 146.4V69.1h22c4.9 0 9.1.5 12.7 1.5s6.5 2.4 8.9 4.3c2.3 1.9 4.1 4.1 5.2 6.8 1.1 2.7 1.7 5.6 1.7 8.9 0 2.7-.4 5.3-1.3 7.6-.9 2.4-2.1 4.5-3.8 6.4-1.7 1.9-3.7 3.5-6.1 4.8s-5.1 2.3-8.1 3c1.4.9 2.5 2 3.5 3.3l22.6 30.8h-9.3c-1.9 0-3.3-.7-4.2-2.2l-20.1-27.7c-.6-.9-1.2-1.5-1.9-1.9-.7-.4-1.8-.6-3.3-.6h-8v32.3h-10.5zm10.4-39.9h11c3 0 5.7-.4 8-1.1s4.3-1.8 5.8-3.1c1.6-1.4 2.7-3 3.5-4.8.8-1.9 1.2-3.9 1.2-6.2 0-4.6-1.5-8.1-4.5-10.4s-7.6-3.5-13.6-3.5h-11.4v29.1z"/>
        <path class="st0" d="M489.3 146.4V69.1H537v8.5h-37.2v25.7h30.1v8.2h-30.1v26.4h37.3l-.1 8.5h-47.7z"/>
        <path class="st0" d="M550.6 88.7l23-19.8h7.8v69.9h15.2v7.5h-41.4v-7.5h16.5V86.3c0-1.5.1-3.1.2-4.8l-13.7 11.8c-.5.4-.9.6-1.4.7s-.9.1-1.3.1c-.4-.1-.8-.2-1.1-.4-.4-.2-.6-.5-.8-.7l-3-4.3z"/>
        <path class="st0" d="M609 146.4v-3.2c0-.7.2-1.4.5-2.1.4-.7.9-1.4 1.6-2l24.6-24.9c2-2.1 3.9-4.1 5.6-6 1.7-1.9 3.1-3.9 4.3-5.8 1.2-2 2.1-3.9 2.7-5.9.7-2 1-4.1 1-6.4s-.4-4.3-1.1-6c-.7-1.7-1.7-3.1-2.9-4.2s-2.7-1.9-4.4-2.5-3.5-.8-5.5-.8-3.8.3-5.5.9-3.1 1.4-4.4 2.4c-1.3 1-2.3 2.2-3.2 3.6s-1.5 3-1.9 4.6c-.4 1.3-1 2.1-1.7 2.5s-1.7.5-3.1.3l-4.9-.8c.5-3.5 1.5-6.6 2.9-9.3 1.5-2.7 3.3-5 5.5-6.8s4.7-3.2 7.5-4.2c2.8-.9 5.9-1.4 9.2-1.4 3.2 0 6.3.5 9.1 1.5s5.3 2.4 7.3 4.2c2.1 1.8 3.7 4.1 4.9 6.8 1.2 2.7 1.8 5.7 1.8 9 0 2.9-.4 5.6-1.3 8-.9 2.5-2 4.8-3.5 7s-3.2 4.4-5.1 6.5c-1.9 2.1-3.9 4.3-6.1 6.4l-20.3 20.9c1.4-.4 2.9-.7 4.4-.9s2.9-.4 4.3-.4h25.9c1.1 0 1.9.3 2.5.9.6.6.9 1.4.9 2.3v5.8H609z"/>
    </g>
</symbol><symbol id="icon-email" viewBox="0 0 305.7 232.2">
    <path d="M269.4 0H36.3C16.3 0 0 15.6 0 34.8v162.5c0 19.2 16.3 34.8 36.3 34.8h233.1c20 0 36.3-15.6 36.3-34.8V34.8c0-19.2-16.3-34.8-36.3-34.8zm0 201.4H36.3c-2.9 0-5.5-1.9-5.5-4.1v-141l105.4 89c2.2 1.8 4.9 2.8 7.7 2.8h17.8c2.8 0 5.6-1 7.7-2.8l105.4-89v141c.1 2.2-2.4 4.1-5.4 4.1zm-116.6-83.8L50.3 30.8h205.1l-102.6 86.8zm0 0"/>
</symbol><symbol id="icon-facebook" viewBox="0 0 60 60">
    <style>
        .st0{fill:#3a589b}
    </style>
    <path class="st0" d="M25.8 46.3h6.7V30H37l.6-5.6h-5.1v-2.8c0-1.5.1-2.3 2.2-2.3h2.8v-5.6H33c-5.4 0-7.3 2.7-7.3 7.3v3.4h-3.4V30h3.4v16.3zM30 60C13.4 60 0 46.6 0 30S13.4 0 30 0s30 13.4 30 30-13.4 30-30 30z"/>
</symbol><symbol id="icon-instagram" viewBox="0 0 60 60">
    <style>
        .st0{fill:#517fa6}
    </style>
    <path class="st0" d="M39.3 22.6h1.5c.6 0 1.2-.6 1.2-1.2v-2.9c0-.7-.5-1.2-1.2-1.2h-2.9c-.7 0-1.2.6-1.2 1.2v2.9c0 .1 0 .3.1.4.2.5.6.8 1.2.8h1.3zM30 23.8c-3.4 0-6.1 2.7-6.2 6.1 0 3.5 2.7 6.2 6 6.3 3.5.1 6.2-2.7 6.3-6 .2-3.5-2.6-6.4-6.1-6.4zm-12 3.3v13.6c0 .6.6 1.2 1.2 1.2h21.5c.7 0 1.2-.6 1.2-1.2V27.1H39c.4 1.3.5 2.7.4 4s-.6 2.6-1.3 3.8-1.6 2.1-2.8 2.9c-2.9 2-6.8 2.2-9.9.4-1.6-.9-2.8-2.1-3.7-3.7-1.3-2.4-1.5-4.9-.7-7.5-1 .1-2 .1-3 .1zm24.2 18.2c.2 0 .3 0 .5-.1 1.2-.3 2.3-1.3 2.5-2.6 0-.1 0-.3.1-.4V17.8c0-.1 0-.3-.1-.4-.3-1.4-1.4-2.4-2.8-2.6H17.8c-.1 0-.3 0-.4.1-1.4.3-2.4 1.4-2.5 2.8v24.7c0 .2 0 .3.1.5.3 1.3 1.4 2.3 2.8 2.5h24.4zM30 60C13.4 60 0 46.6 0 30S13.4 0 30 0s30 13.4 30 30-13.4 30-30 30z"/>
</symbol><symbol id="icon-logo" viewBox="0 0 215.5 215.5">
    <style>
        .st0{fill:#0e4b82}
    </style>
    <path class="st0" d="M69.7 107.7c0 21 17 38 38 38s38-17 38-38-17-38-38-38-38 17-38 38m38-22.2c12.2 0 22.2 9.9 22.2 22.2 0 12.2-9.9 22.2-22.2 22.2s-22.2-9.9-22.2-22.2c0-12.2 10-22.2 22.2-22.2"/>
    <path class="st0" d="M15.8 107.7c0-19.6 6.2-37.8 16.7-52.8L20.3 44.7C7.5 62.4 0 84.2 0 107.7c0 50.6 34.9 93 81.9 104.6l2.8-15.6c-39.6-10.3-68.9-46.2-68.9-89"/>
    <path class="st0" d="M55.2 32.4l9.6 16.5c-18.1 13.2-29.9 34.6-29.9 58.8 0 8.3 1.4 16.3 4 23.8l14.4-6.7c-1.7-5.4-2.6-11.1-2.6-17.1 0-18.3 8.6-34.6 22-45 4.2-3.2 8.8-5.9 13.7-7.9 5.7-2.3 11.9-3.7 18.4-4l1.4-15.9c-9.8.2-19.2 2.3-27.8 6.1l-9.6-16.5c11.8-5.5 24.9-8.6 38.8-8.6 22.6 0 43.3 8.2 59.3 21.7l11.2-11.2C159.3 9.9 134.7 0 107.7 0 90.9 0 75.1 3.8 60.9 10.7c-4.8 2.3-9.4 5-13.7 7.9-6 4.1-11.6 8.8-16.7 14l12.2 10.2c3.8-3.8 8-7.3 12.5-10.4"/>
    <path class="st0" d="M208.6 69.9c-1.9-5-4.1-9.8-6.7-14.4-3.6-6.4-7.7-12.4-12.5-18l-11.2 11.2c3.5 4.2 6.6 8.7 9.3 13.4l-17.3 8.1c-10.4-17.3-27.8-30-48.2-34l-1.4 15.9c14.7 3.4 27.2 12.5 35.2 24.9 2.8 4.4 5.1 9.3 6.6 14.4 1.5 5.2 2.4 10.6 2.4 16.3 0 4.2-.5 8.4-1.4 12.3l15 5.5c1.4-5.7 2.2-11.7 2.2-17.8 0-8.1-1.3-15.8-3.7-23l17.3-8.1c3.5 9.7 5.4 20.2 5.4 31.1 0 28.3-12.8 53.6-32.9 70.5l9.1 13c24.2-19.8 39.7-49.8 39.7-83.5-.1-13.3-2.5-26.1-6.9-37.8"/>
    <path class="st0" d="M131.4 196.5l-3.3-18.8c19.6-5.7 35.7-19.4 44.7-37.3l-15-5.5a57.45 57.45 0 0 1-32.5 27.1c-4.9 1.6-10.2 2.6-15.6 2.7h-2c-19.9 0-37.4-10.2-47.6-25.7l-14.5 6.8c12.8 20.8 35.8 34.8 62.1 34.8 1.6 0 3.2-.1 4.8-.2l3.3 18.8c-2.7.2-5.4.4-8.1.4-2.5 0-5-.1-7.4-.3L97.5 215c3.4.3 6.8.5 10.2.5 3.7 0 7.3-.2 10.9-.5 5.3-.5 10.5-1.5 15.6-2.7 10.2-2.6 19.8-6.6 28.6-11.8l-9.1-13c-6.9 3.7-14.4 6.9-22.3 9"/>
</symbol><symbol id="icon-marker" viewBox="0 0 128 128">
    <path d="M64 0C39.699 0 20 19.699 20 44s44 84 44 84 44-59.699 44-84S88.301 0 64 0zM28 44C28 24.148 44.148 8 64 8s36 16.148 36 36c0 13.828-20.008 47.211-36 70.238C48.008 91.211 28 57.828 28 44zm36-20c-11.047 0-20 8.953-20 20s8.953 20 20 20 20-8.953 20-20-8.953-20-20-20zm0 32c-6.617 0-12-5.383-12-12s5.383-12 12-12 12 5.383 12 12-5.383 12-12 12z"/>
</symbol><symbol id="icon-phone" viewBox="0 0 52.9 54.7">
    <style>
        .st0{clip-path:url(#SVGID_2_)}
    </style>
    
    <clipPath id="SVGID_2_">
        <use xlink:href="#SVGID_1_" overflow="visible"/>
    </clipPath>
    <path class="st0" d="M51.6 40.2c-1.3-1.5-7.1-7.3-7.7-7.9-.4-.5-2-2-4.2-2-1 0-2.1.4-3 1-1.1.8-2.8 2.3-4 3.4-1.5-.9-4-2.4-5.6-3.7-2.8-2.3-5.4-5.4-7.8-9.3l-.3-.5c1.2-1.3 2.7-3 3.5-4.1 2.1-2.8.6-5.8-1-7.2-.7-.7-6.5-6.5-7.9-7.7-1-.9-2.3-1.4-3.6-1.4-1.1-.1-1.9.2-2.1.3l-.7.4C4.1 3.5.2 6 0 15.3 0 24.5 7 33.2 12.9 39c6.2 6.7 15.5 14.8 25.4 14.8h.1c9.3-.2 11.8-4.1 13.8-7.2l.2-.3.2-.4c.4-1.2.7-3.7-1-5.7zm-3.5 3.7c-1.8 2.8-3.2 4.9-9.8 5.1v2.4V49c-8.5 0-17.3-8.3-21.9-13.2l-.1-.1C8.9 28.4 4.8 21.2 4.8 15.4c.2-6.7 2.3-8.1 5-9.8.2 0 .4 0 .6.2 1.1 1 6 5.8 7.8 7.6l.1.1c.2.2.4.5.4.6l-.1.1c-.7 1-2.3 2.8-4.3 5l-1.2 1.2 1.9 3.5.1.1c2.7 4.4 5.6 7.9 8.9 10.6 2.9 2.4 7.7 5 7.9 5.1l1.5.8 1.3-1.2c1.5-1.4 3.7-3.4 4.9-4.2l.1-.1c.1 0 .5.2.6.4l.1.2c1.8 1.8 6.6 6.6 7.6 7.8.1.1.1.4.1.5zm0 0"/>
</symbol><symbol id="icon-play" viewBox="0 0 391.8 391.8">
    <path d="M195.9 0C87.8 0 0 87.8 0 195.9 0 304 87.9 391.8 195.9 391.8c108.1 0 195.9-87.9 195.9-195.9C391.8 87.8 304 0 195.9 0zm0 364.4c-92.9 0-168.5-75.6-168.5-168.5S103 27.4 195.9 27.4 364.4 103 364.4 195.9s-75.6 168.5-168.5 168.5zm0 0"/>
    <path d="M300.7 184.4L160.1 94.2c-4.2-2.7-9.6-2.9-14-.5s-7.1 7-7.1 12v180.4c0 5 2.7 9.6 7.1 12 2.1 1.1 4.3 1.7 6.6 1.7 2.6 0 5.1-.7 7.4-2.2l140.6-90.2c3.9-2.6 6.3-6.9 6.3-11.5s-2.4-9-6.3-11.5zM166.3 261V130.8l101.5 65.1L166.3 261zm0 0"/>
</symbol><symbol id="icon-quotes-after" viewBox="0 0 32.6 25">
    <style>
        .st0{fill:#231f20}
    </style>
    <path class="st0" d="M15 18.5c0 2-.7 3.6-2 4.7-1.3 1.2-3 1.8-4.9 1.8-2.5 0-4.5-.8-5.9-2.4C.7 21 0 18.9 0 16.2s.4-5 1.3-6.9c.9-1.9 1.9-3.5 3.1-4.7 1.2-1.3 2.4-2.2 3.7-3C9.4.9 10.5.4 11.5 0l3.3 5.5c-1.4.5-2.5 1.4-3.5 2.6-1 1.2-1.5 2.5-1.6 3.8 1.4 0 2.6.6 3.7 1.8 1 1.2 1.6 2.8 1.6 4.8zm17.6 0c0 2-.7 3.6-2 4.7-1.3 1.2-3 1.8-4.9 1.8-2.5 0-4.5-.8-5.9-2.4-1.4-1.6-2.1-3.7-2.1-6.4s.4-5 1.3-6.9c.9-1.9 1.9-3.5 3.1-4.7 1.2-1.3 2.4-2.2 3.7-3C27 .9 28.1.3 29.1 0l3.3 5.5c-1.4.5-2.5 1.4-3.5 2.6-1 1.2-1.5 2.5-1.6 3.8 1.4 0 2.6.6 3.7 1.8 1.1 1.2 1.6 2.8 1.6 4.8z"/>
</symbol><symbol id="icon-quotes-before" viewBox="0 0 32.6 25">
    <style>
        .st0{fill:#231f20}
    </style>
    <path class="st0" d="M17.6 6.5c0-2 .7-3.6 2-4.7 1.4-1.2 3-1.8 5-1.8 2.5 0 4.5.8 5.9 2.4 1.4 1.6 2.1 3.7 2.1 6.4s-.4 5-1.3 6.9c-.9 1.9-1.9 3.5-3.1 4.7-1.2 1.3-2.4 2.2-3.7 3-1.3.7-2.4 1.2-3.4 1.6L18 19.5c1.4-.5 2.5-1.4 3.5-2.6 1-1.2 1.5-2.5 1.6-3.8-1.4 0-2.6-.6-3.7-1.8-1.2-1.2-1.8-2.8-1.8-4.8zM0 6.5c0-2 .7-3.6 2-4.7C3.3.6 5 0 6.9 0c2.5 0 4.5.8 5.9 2.4C14.3 4 15 6.1 15 8.8s-.4 5-1.3 6.9c-.9 1.9-1.9 3.5-3.1 4.7-1.2 1.3-2.4 2.2-3.7 3-1.3.7-2.4 1.2-3.4 1.6L.2 19.5c1.4-.5 2.5-1.4 3.5-2.6 1-1.2 1.5-2.5 1.6-3.8-1.4 0-2.6-.6-3.7-1.8C.6 10.1 0 8.5 0 6.5z"/>
</symbol><symbol id="icon-tech-1" viewBox="0 0 152.9 194">
    <style>
        .st0{clip-path:url(#SVGID_2_)}
    </style>
    
    <clipPath id="SVGID_2_">
        <use xlink:href="#SVGID_1_" overflow="visible"/>
    </clipPath>
    <path class="st0" d="M150.4 68.5l-14.7-15.2 3-21c.5-3.2-1.7-6.2-4.9-6.8L113 21.8 103 3.2c-1.5-2.9-5-4-7.9-2.6l-19 9.3-19-9.3c-2.9-1.4-6.4-.3-7.9 2.6l-9.9 18.7-20.8 3.7c-3.2.6-5.4 3.5-4.9 6.8l3 21L1.7 68.5c-2.2 2.3-2.2 6 0 8.3L16.4 92l-3 21c-.5 3.2 1.7 6.2 4.9 6.8l16.7 2.9v64.9c0 2.1 1.1 4 2.8 5.1 1 .6 2.1.9 3.2.9.9 0 1.8-.2 2.7-.6l32.4-16.2 32.3 16.2c1.9.9 4.1.8 5.8-.3 1.8-1.1 2.8-3 2.8-5.1v-64.9l16.7-2.9c3.2-.6 5.4-3.5 4.9-6.8l-3-21 14.7-15.2c2.4-2.3 2.4-6 .1-8.3zm-71.7 96.2c-1.7-.8-3.7-.8-5.4 0L47 177.8v-39.7l2.1 3.9c1.5 2.9 5 4 7.9 2.6l19-9.3 19 9.3c.8.4 1.7.6 2.6.6 2.1 0 4.2-1.2 5.3-3.2l2.1-3.9v39.7l-26.3-13.1zm46.4-78.9c-1.3 1.3-1.9 3.2-1.6 5l2.6 18.1-18 3.2c-1.8.3-3.4 1.5-4.3 3.1l-8.6 16.2-16.4-8c-.8-.4-1.7-.6-2.6-.6-.9 0-1.8.2-2.6.6l-16.4 8-8.6-16.2c-.9-1.6-2.4-2.8-4.3-3.1l-18-3.2 2.6-18.1c.3-1.8-.3-3.7-1.6-5l-13-13.2L27 59.5c1.3-1.3 1.9-3.2 1.6-5L26 36.4l18-3.2c1.8-.3 3.4-1.5 4.3-3.1L57 13.9l16.4 8c1.7.8 3.6.8 5.3 0l16.4-8 8.6 16.2c.9 1.6 2.4 2.8 4.3 3.1l18 3.2-2.6 18.1c-.3 1.8.3 3.7 1.6 5l12.7 13.1-12.6 13.2zm0 0"/>
    <path d="M76.1 31.6c-22.6 0-41 18.4-41 41s18.4 41 41 41 41-18.4 41-41-18.4-41-41-41zm0 70.1c-16 0-29-13-29-29s13-29 29-29 29 13 29 29c0 15.9-13 29-29 29zm0 0"/>
    <path d="M88.3 57.4L70.6 75.1l-6.7-6.7c-2.3-2.3-6.1-2.3-8.5 0-2.3 2.3-2.3 6.1 0 8.5l11 11c1.2 1.2 2.7 1.8 4.2 1.8s3.1-.6 4.2-1.8l22-22c2.3-2.3 2.3-6.1 0-8.5-2.4-2.3-6.2-2.3-8.5 0zm0 0"/>
</symbol><symbol id="icon-tech-2" viewBox="0 0 392 392.9">
    <style>
        .st0{clip-path:url(#SVGID_2_)}
    </style>
    
    <clipPath id="SVGID_2_">
        <use xlink:href="#SVGID_1_" overflow="visible"/>
    </clipPath>
    <path class="st0" d="M375.2 208.3c-3-34.4-31-62.5-65.5-61.4V83.5c0-7.5-5.2-14.1-12.6-15.8-35.8-8.6-91.8-30.5-131.8-63.8-5.2-4.3-12.6-5-18.5-1.7-28.4 16-107.9 59-134.2 65.4C5.2 69.4 0 75.9 0 83.5v137c0 94.6 69.4 171.4 154.9 171.4 38.9 0 76-16 104.6-45 1.4-1.4 2.4-3 3.2-4.6h113c9 0 16.3-7.3 16.3-16.3V224.6c-1-16.4-16.8-16.3-16.8-16.3zm-32.9 0h-61.1c2.6-16.3 15.3-28.7 30.6-28.7 15.2 0 28 12.3 30.5 28.7zM32.6 220.5v-125c35-12.7 96.1-45.9 120.6-59.6C192 65.4 239.9 85.6 277 96v61.8c-27.4 19.4-29.2 50.5-29.2 50.5-9 0-16.3 7.3-16.3 16.3 0 0 .1 103 .2 103.8-21.7 20-48.8 31-76.9 31-67.3-.1-122.2-62.3-122.2-138.9zm326.8 89.1h-95.2V241h95.1l.1 68.6zm0 0"/>
</symbol><symbol id="icon-tech-3" viewBox="0 0 25.6 36.8">
    <path d="M22.4 14.4V9.6c0-5.3-4.3-9.6-9.6-9.6S3.2 4.3 3.2 9.6v4.8c-1.8 0-3.2 1.4-3.2 3.2v16c0 1.8 1.4 3.2 3.2 3.2h19.2c1.8 0 3.2-1.4 3.2-3.2v-16c0-1.8-1.4-3.2-3.2-3.2zm-16-4.8c0-3.5 2.9-6.4 6.4-6.4 3.5 0 6.4 2.9 6.4 6.4v4.8H6.4V9.6zm16 24H3.2v-16h19.2v16zm-11.2-6.8v2c0 .9.7 1.6 1.6 1.6s1.6-.7 1.6-1.6v-2c1-.6 1.6-1.6 1.6-2.8 0-1.8-1.4-3.2-3.2-3.2-1.8 0-3.2 1.4-3.2 3.2 0 1.2.6 2.2 1.6 2.8zm0 0"/>
</symbol><symbol id="icon-tech-4" viewBox="0 0 385 393.8">
    <style>
        .st0{clip-path:url(#SVGID_2_)}
    </style>
    
    <clipPath id="SVGID_2_">
        <use xlink:href="#SVGID_1_" overflow="visible"/>
    </clipPath>
    <path class="st0" d="M369.8 42.5c-8.8-.8-16.6 5.8-17.4 14.6l-1.7 19.4C291-.3 181.8-22.7 96.1 28.2 3 83.3-27.8 203.7 27.4 296.8c26.7 45 69.4 77 120.1 90 63.4 16.2 117.8-3.1 148.6-21.3 7.7-4.6 10.2-14.4 5.7-22.1-4.6-7.7-14.4-10.2-22.1-5.6-37.7 22.2-81.8 28.6-124.2 17.8C113 344.8 77.4 318.1 55 280.4 9 202.7 34.7 102 112.4 55.9c74.2-44 169.4-22.3 217.9 47.4l-29.9-2.6c-8.9-.8-16.6 5.8-17.4 14.6-.8 8.9 5.8 16.6 14.6 17.4 0 0 64.7 5.7 65.2 5.7 3.8 0 7.4-1.3 10.3-3.8 3.3-2.7 5.3-6.6 5.7-11l5.6-63.8c.8-8.8-5.8-16.5-14.6-17.3zm0 0"/>
    <path d="M145.2 211.1c7.4-6.7 12.4-11.8 15.2-15.4 4.2-5.4 7.4-10.6 9.3-15.5 1.9-5 3-10.1 3-15.6 0-9.6-3.4-17.6-10.2-24-6.8-6.5-16.2-9.7-28.2-9.7-10.9 0-20 2.8-27.3 8.3-7.3 5.6-11.6 14.7-13 27.5l23.1 2.3c.4-6.8 2.1-11.6 5-14.6 2.9-2.9 6.7-4.4 11.6-4.4 4.9 0 8.7 1.4 11.5 4.2 2.8 2.8 4.2 6.8 4.2 11.9 0 4.7-1.6 9.4-4.8 14.2-2.4 3.4-8.8 10.1-19.3 19.8-13 12.1-21.7 21.8-26.1 29-4.4 7.3-7 15-7.9 23.2h81.4v-21.5h-46.1c1.2-2.1 2.8-4.2 4.7-6.4 2-2.1 6.6-6.6 13.9-13.3zm0 0"/>
    <path d="M256.3 252.5v-24.4h15v-20.4h-15v-76.8h-19.5l-52.5 76.9v20.3h49.5v24.4h22.5zM206 207.7l27.8-41.4v41.4H206zm0 0"/>
</symbol><symbol id="icon-tech-5" viewBox="0 0 331.5 345.2">
    <path d="M331.5 177.9C331.5 79.7 257.1 0 166 0 75.8 0 2.3 77.9.7 174.4c-.5 2.8-.7 5.8-.7 8.9v62.9c0 27 21.9 49 49 49 27 0 49-21.9 49-49v-62.9c0-27-22.1-49-49.2-49-5.1 0-10.3.9-14.9 2.3C50.4 74.1 103.3 28.2 166 28.2c62.9 0 116.1 46.4 132.4 109.3-5.4-1.9-10.7-3-16.8-3-27 0-48.7 21.9-48.7 49v62.9c0 20.5 12.4 38.2 30.3 45.5-6.1 11-19.8 25.4-47.3 25.4h-69.2c-7.7 0-14 6.3-14 14s6.3 14 14 14h69.2c45.9 0 69-30.1 76.9-51.3 21.7-5.1 38-24.5 38-47.8v-60.6l.7-5.1v-2.6zM48.5 162c11.7 0 21.2 9.6 21.2 21v62.9c0 11.7-9.6 21.9-21.2 21.9-11.7 0-21-10.5-21-21.9V182c.5-1.4.7-2.8.7-4.4v-.2c2.6-8.9 10.7-15.4 20.3-15.4zm233.3 105.1c-11.7 0-21-9.6-21-21v-62.9c0-11.7 9.3-21 21-21s21 9.6 21 21v62.9c0 11.5-9.3 21-21 21zm0 0"/>
</symbol><symbol id="icon-tech-6" viewBox="0 0 264 264">
    <path d="M256.4.8c-4.6-1.8-9.8-.6-13.2 3l-89.1 96.5-39.4-26-.1-.1c-.1-.1-.3-.2-.4-.3-.2-.1-.3-.2-.5-.3-.3-.2-.6-.3-1-.5-.1-.1-.3-.1-.4-.2-.2-.1-.4-.2-.6-.2-.1 0-.3-.1-.4-.1-.2-.1-.4-.1-.6-.2-.1 0-.3-.1-.4-.1-.2 0-.5-.1-.7-.1H106.9c-.3 0-.5.1-.8.1-.2 0-.3.1-.5.1-.3.1-.6.1-.9.2-.2 0-.3.1-.5.2s-.4.1-.6.2c-.2.1-.3.1-.5.2s-.4.2-.5.3c-.1.1-.3.2-.4.2-.2.1-.4.2-.5.3-.1.1-.3.2-.4.3-.2.1-.3.2-.5.4-.1.1-.3.2-.4.3-.2.1-.3.3-.5.4l-.4.4-.2.2-96 103.6C1.1 182 0 184.9 0 187.9V252c0 6.6 5.4 12 12 12h240c6.6 0 12-5.4 12-12V12c0-4.9-3-9.4-7.6-11.2zM96 240H72v-99.2l24-25.9V240zm24-133.4l24 15.8V240h-24V106.6zm48 14.1l24-26V240h-24V120.7zM24 192.6l24-25.9V240H24v-47.4zM240 240h-24V68.7l24-26V240zm0 0"/>
</symbol><symbol id="icon-vkontakte" viewBox="0 0 512 512">
    <title>
        social-vkontakte
    </title>
    <path d="M0 256C0 114.615 114.624 0 256 0c141.385 0 256 114.624 256 256 0 141.385-114.624 256-256 256C114.615 512 0 397.376 0 256zm273.552 101.147s6.46-.713 9.761-4.264c3.04-3.263 2.943-9.388 2.943-9.388s-.422-28.678 12.902-32.9c13.135-4.16 29.998 27.716 47.871 39.972 13.517 9.275 23.79 7.245 23.79 7.245l47.795-.665s24.996-1.543 13.144-21.185c-.97-1.603-6.908-14.526-35.536-41.077-29.976-27.797-25.958-23.297 10.144-71.371 21.984-29.278 30.776-47.147 28.026-54.804-2.617-7.293-18.787-5.37-18.787-5.37l-53.816.337s-3.987-.545-6.948 1.223c-2.89 1.731-4.746 5.77-4.746 5.77s-8.525 22.655-19.88 41.922c-23.96 40.652-33.543 42.804-37.46 40.274-9.111-5.884-6.833-23.63-6.833-36.245 0-39.399 5.981-55.828-11.65-60.078-5.85-1.411-10.158-2.347-25.12-2.498-19.199-.195-35.452.061-44.651 4.562-6.122 3.003-10.848 9.671-7.966 10.058 3.556.474 11.61 2.168 15.879 7.976 5.515 7.497 5.321 24.33 5.321 24.33s3.171 46.378-7.4 52.136c-7.254 3.953-17.204-4.114-38.57-40.998-10.943-18.89-19.208-39.779-19.208-39.779s-1.59-3.898-4.435-5.99c-3.449-2.532-8.269-3.333-8.269-3.333l-51.138.331s-7.677.218-10.491 3.554c-2.512 2.968-.201 9.102-.201 9.102s40.032 93.585 85.364 140.744c41.576 43.25 88.774 40.409 88.774 40.409h21.39z" fill-rule="evenodd"/>
</symbol><symbol id="icon-youtube" viewBox="0 0 497.8 497.8">
    <style>
        .st0{fill:url(#SVGID_1_)}.st1{fill:url(#SVGID_2_)}
    </style>
    <linearGradient id="SVGID_1_" gradientUnits="userSpaceOnUse" x1="22.752" y1="456.05" x2="435.988" y2="42.814" gradientTransform="matrix(1 0 0 -1 0 497.804)">
        <stop offset="0" stop-color="#dd272d"/>
        <stop offset=".515" stop-color="#ca2429"/>
        <stop offset="1" stop-color="#b22025"/>
    </linearGradient>
    <path class="st0" d="M210.9 306.1l95.2-57.2-95.2-57.1z"/>
    <linearGradient id="SVGID_2_" gradientUnits="userSpaceOnUse" x1="32.253" y1="465.551" x2="445.489" y2="52.315" gradientTransform="matrix(1 0 0 -1 0 497.804)">
        <stop offset="0" stop-color="#dd272d"/>
        <stop offset=".515" stop-color="#ca2429"/>
        <stop offset="1" stop-color="#b22025"/>
    </linearGradient>
    <path class="st1" d="M248.9 0C111.4 0 0 111.4 0 248.9s111.4 248.9 248.9 248.9 248.9-111.4 248.9-248.9S386.4 0 248.9 0zm152.4 261.2c0 26.3-3 52.6-3 52.6s-3 22.4-12.1 32.3c-11.6 12.9-24.6 13-30.5 13.8-42.6 3.3-106.7 3.4-106.7 3.4s-79.2-.8-103.6-3.3c-6.8-1.4-22-1-33.6-13.9-9.1-9.8-12.1-32.3-12.1-32.3s-3-26.3-3-52.6v-24.7c0-26.3 3-52.6 3-52.6s3-22.4 12.1-32.3c11.6-12.9 24.6-13 30.5-13.7 42.6-3.3 106.6-3.3 106.6-3.3h.1s64 0 106.6 3.3c6 .7 18.9.8 30.5 13.7 9.1 9.9 12.1 32.3 12.1 32.3s3 26.3 3 52.6l.1 24.7z"/>
</symbol></svg>